<?xml version="1.0" encoding="UTF-8" standalone="no"?>
<!DOCTYPE svg PUBLIC "-//W3C//DTD SVG 1.1//EN"
 "http://www.w3.org/Graphics/SVG/1.1/DTD/svg11.dtd">
<!-- Generated by graphviz version 2.40.1 (20161225.0304)
 -->
<!-- Title: dependencies Pages: 1 -->
<svg width="504pt" height="211pt"
 viewBox="0.00 0.00 504.00 211.00" xmlns="http://www.w3.org/2000/svg" xmlns:xlink="http://www.w3.org/1999/xlink">
<g id="graph0" class="graph" transform="scale(1 1) rotate(0) translate(4 207)">
<title>dependencies</title>
<polygon fill="#ffffff" stroke="transparent" points="-4,4 -4,-207 500,-207 500,4 -4,4"/>
<text text-anchor="start" x="227.0091" y="-42.4" font-family="sans-serif" font-weight="bold" font-size="14.00" fill="#000000">Legend</text>
<polygon fill="#ffffb3" stroke="transparent" points="14,-10 14,-30 34,-30 34,-10 14,-10"/>
<text text-anchor="start" x="37.629" y="-15.4" font-family="sans-serif" font-size="14.00" fill="#000000"> &#160;Declarations</text>
<polygon fill="#8dd3c7" stroke="transparent" points="127,-10 127,-30 147,-30 147,-10 127,-10"/>
<text text-anchor="start" x="150.7251" y="-15.4" font-family="sans-serif" font-size="14.00" fill="#000000"> &#160;Module</text>
<polygon fill="#80b1d3" stroke="transparent" points="213,-10 213,-30 233,-30 233,-10 213,-10"/>
<text text-anchor="start" x="236.7812" y="-15.4" font-family="sans-serif" font-size="14.00" fill="#000000"> &#160;Bootstrap</text>
<polygon fill="#fdb462" stroke="transparent" points="310,-10 310,-30 330,-30 330,-10 310,-10"/>
<text text-anchor="start" x="333.6732" y="-15.4" font-family="sans-serif" font-size="14.00" fill="#000000"> &#160;Providers</text>
<polygon fill="#fb8072" stroke="transparent" points="406,-10 406,-30 426,-30 426,-10 406,-10"/>
<text text-anchor="start" x="429.7258" y="-15.4" font-family="sans-serif" font-size="14.00" fill="#000000"> &#160;Exports</text>
<g id="clust1" class="cluster">
<title>cluster_DashboardModule</title>
<polygon fill="none" stroke="#000000" stroke-dasharray="1,5" points="30,-70 30,-195 466,-195 466,-70 30,-70"/>
</g>
<g id="clust2" class="cluster">
<title>cluster_DashboardModule_declarations</title>
<polygon fill="none" stroke="#000000" points="38,-78 38,-130 458,-130 458,-78 38,-78"/>
</g>
<!-- DashboardComponent -->
<g id="node1" class="node">
<title>DashboardComponent</title>
<polygon fill="#ffffb3" stroke="#000000" points="449.9734,-122 308.0266,-122 308.0266,-86 449.9734,-86 449.9734,-122"/>
<text text-anchor="middle" x="379" y="-99.8" font-family="Times,serif" font-size="14.00" fill="#000000">DashboardComponent</text>
</g>
<!-- DashboardModule -->
<g id="node4" class="node">
<title>DashboardModule</title>
<polygon fill="#8dd3c7" stroke="#000000" points="299.191,-187 296.191,-191 275.191,-191 272.191,-187 178.809,-187 178.809,-151 299.191,-151 299.191,-187"/>
<text text-anchor="middle" x="239" y="-164.8" font-family="Times,serif" font-size="14.00" fill="#000000">DashboardModule</text>
</g>
<!-- DashboardComponent&#45;&gt;DashboardModule -->
<g id="edge1" class="edge">
<title>DashboardComponent&#45;&gt;DashboardModule</title>
<path fill="none" stroke="#000000" d="M307.8079,-104C299.8976,-104 294.6242,-104 294.6242,-104 294.6242,-104 294.6242,-140.8939 294.6242,-140.8939"/>
<polygon fill="#000000" stroke="#000000" points="291.1242,-140.8938 294.6242,-150.8939 298.1242,-140.8939 291.1242,-140.8938"/>
</g>
<!-- StatusDirective -->
<g id="node2" class="node">
<title>StatusDirective</title>
<polygon fill="#ffffb3" stroke="#000000" points="290.3063,-122 187.6937,-122 187.6937,-86 290.3063,-86 290.3063,-122"/>
<text text-anchor="middle" x="239" y="-99.8" font-family="Times,serif" font-size="14.00" fill="#000000">StatusDirective</text>
</g>
<!-- StatusDirective&#45;&gt;DashboardModule -->
<g id="edge2" class="edge">
<title>StatusDirective&#45;&gt;DashboardModule</title>
<path fill="none" stroke="#000000" d="M239,-122.1061C239,-122.1061 239,-140.991 239,-140.991"/>
<polygon fill="#000000" stroke="#000000" points="235.5001,-140.9909 239,-150.991 242.5001,-140.991 235.5001,-140.9909"/>
</g>
<!-- TestingComponent -->
<g id="node3" class="node">
<title>TestingComponent</title>
<polygon fill="#ffffb3" stroke="#000000" points="169.8258,-122 46.1742,-122 46.1742,-86 169.8258,-86 169.8258,-122"/>
<text text-anchor="middle" x="108" y="-99.8" font-family="Times,serif" font-size="14.00" fill="#000000">TestingComponent</text>
</g>
<!-- TestingComponent&#45;&gt;DashboardModule -->
<g id="edge3" class="edge">
<title>TestingComponent&#45;&gt;DashboardModule</title>
<path fill="none" stroke="#000000" d="M169.9002,-104C177.9,-104 183.3759,-104 183.3759,-104 183.3759,-104 183.3759,-140.8939 183.3759,-140.8939"/>
<polygon fill="#000000" stroke="#000000" points="179.8759,-140.8938 183.3759,-150.8939 186.8759,-140.8939 179.8759,-140.8938"/>
</g>
</g>
</svg>
