<?xml version="1.0" encoding="UTF-8" standalone="no"?>
<!DOCTYPE svg PUBLIC "-//W3C//DTD SVG 1.1//EN"
 "http://www.w3.org/Graphics/SVG/1.1/DTD/svg11.dtd">
<!-- Generated by graphviz version 2.40.1 (20161225.0304)
 -->
<!-- Title: dependencies Pages: 1 -->
<svg width="635pt" height="211pt"
 viewBox="0.00 0.00 635.00 211.00" xmlns="http://www.w3.org/2000/svg" xmlns:xlink="http://www.w3.org/1999/xlink">
<g id="graph0" class="graph" transform="scale(1 1) rotate(0) translate(4 207)">
<title>dependencies</title>
<polygon fill="#ffffff" stroke="transparent" points="-4,4 -4,-207 631,-207 631,4 -4,4"/>
<text text-anchor="start" x="292.5091" y="-42.4" font-family="sans-serif" font-weight="bold" font-size="14.00" fill="#000000">Legend</text>
<polygon fill="#ffffb3" stroke="transparent" points="79.5,-10 79.5,-30 99.5,-30 99.5,-10 79.5,-10"/>
<text text-anchor="start" x="103.129" y="-15.4" font-family="sans-serif" font-size="14.00" fill="#000000"> &#160;Declarations</text>
<polygon fill="#8dd3c7" stroke="transparent" points="192.5,-10 192.5,-30 212.5,-30 212.5,-10 192.5,-10"/>
<text text-anchor="start" x="216.2251" y="-15.4" font-family="sans-serif" font-size="14.00" fill="#000000"> &#160;Module</text>
<polygon fill="#80b1d3" stroke="transparent" points="278.5,-10 278.5,-30 298.5,-30 298.5,-10 278.5,-10"/>
<text text-anchor="start" x="302.2812" y="-15.4" font-family="sans-serif" font-size="14.00" fill="#000000"> &#160;Bootstrap</text>
<polygon fill="#fdb462" stroke="transparent" points="375.5,-10 375.5,-30 395.5,-30 395.5,-10 375.5,-10"/>
<text text-anchor="start" x="399.1732" y="-15.4" font-family="sans-serif" font-size="14.00" fill="#000000"> &#160;Providers</text>
<polygon fill="#fb8072" stroke="transparent" points="471.5,-10 471.5,-30 491.5,-30 491.5,-10 471.5,-10"/>
<text text-anchor="start" x="495.2258" y="-15.4" font-family="sans-serif" font-size="14.00" fill="#000000"> &#160;Exports</text>
<g id="clust1" class="cluster">
<title>cluster_AuthModule</title>
<polygon fill="none" stroke="#000000" stroke-dasharray="1,5" points="8,-70 8,-195 619,-195 619,-70 8,-70"/>
</g>
<g id="clust2" class="cluster">
<title>cluster_AuthModule_declarations</title>
<polygon fill="none" stroke="#000000" points="16,-78 16,-130 611,-130 611,-78 16,-78"/>
</g>
<!-- AuthComponent -->
<g id="node1" class="node">
<title>AuthComponent</title>
<polygon fill="#ffffb3" stroke="#000000" points="602.8301,-122 493.1699,-122 493.1699,-86 602.8301,-86 602.8301,-122"/>
<text text-anchor="middle" x="548" y="-99.8" font-family="Times,serif" font-size="14.00" fill="#000000">AuthComponent</text>
</g>
<!-- AuthModule -->
<g id="node5" class="node">
<title>AuthModule</title>
<polygon fill="#8dd3c7" stroke="#000000" points="351.5482,-187 348.5482,-191 327.5482,-191 324.5482,-187 264.4518,-187 264.4518,-151 351.5482,-151 351.5482,-187"/>
<text text-anchor="middle" x="308" y="-164.8" font-family="Times,serif" font-size="14.00" fill="#000000">AuthModule</text>
</g>
<!-- AuthComponent&#45;&gt;AuthModule -->
<g id="edge1" class="edge">
<title>AuthComponent&#45;&gt;AuthModule</title>
<path fill="none" stroke="#000000" d="M548,-122.1061C548,-141.3391 548,-169 548,-169 548,-169 361.7406,-169 361.7406,-169"/>
<polygon fill="#000000" stroke="#000000" points="361.7407,-165.5001 351.7406,-169 361.7406,-172.5001 361.7407,-165.5001"/>
</g>
<!-- ForgotPasswordComponent -->
<g id="node2" class="node">
<title>ForgotPasswordComponent</title>
<polygon fill="#ffffb3" stroke="#000000" points="475.3201,-122 302.6799,-122 302.6799,-86 475.3201,-86 475.3201,-122"/>
<text text-anchor="middle" x="389" y="-99.8" font-family="Times,serif" font-size="14.00" fill="#000000">ForgotPasswordComponent</text>
</g>
<!-- ForgotPasswordComponent&#45;&gt;AuthModule -->
<g id="edge2" class="edge">
<title>ForgotPasswordComponent&#45;&gt;AuthModule</title>
<path fill="none" stroke="#000000" d="M327.3068,-122.1061C327.3068,-122.1061 327.3068,-140.991 327.3068,-140.991"/>
<polygon fill="#000000" stroke="#000000" points="323.8069,-140.9909 327.3068,-150.991 330.8069,-140.991 323.8069,-140.9909"/>
</g>
<!-- LoginComponent -->
<g id="node3" class="node">
<title>LoginComponent</title>
<polygon fill="#ffffb3" stroke="#000000" points="284.2758,-122 169.7242,-122 169.7242,-86 284.2758,-86 284.2758,-122"/>
<text text-anchor="middle" x="227" y="-99.8" font-family="Times,serif" font-size="14.00" fill="#000000">LoginComponent</text>
</g>
<!-- LoginComponent&#45;&gt;AuthModule -->
<g id="edge3" class="edge">
<title>LoginComponent&#45;&gt;AuthModule</title>
<path fill="none" stroke="#000000" d="M274.3072,-122.1061C274.3072,-122.1061 274.3072,-140.991 274.3072,-140.991"/>
<polygon fill="#000000" stroke="#000000" points="270.8072,-140.9909 274.3072,-150.991 277.8072,-140.991 270.8072,-140.9909"/>
</g>
<!-- RegisterComponent -->
<g id="node4" class="node">
<title>RegisterComponent</title>
<polygon fill="#ffffb3" stroke="#000000" points="151.9846,-122 24.0154,-122 24.0154,-86 151.9846,-86 151.9846,-122"/>
<text text-anchor="middle" x="88" y="-99.8" font-family="Times,serif" font-size="14.00" fill="#000000">RegisterComponent</text>
</g>
<!-- RegisterComponent&#45;&gt;AuthModule -->
<g id="edge4" class="edge">
<title>RegisterComponent&#45;&gt;AuthModule</title>
<path fill="none" stroke="#000000" d="M88,-122.1061C88,-141.3391 88,-169 88,-169 88,-169 254.272,-169 254.272,-169"/>
<polygon fill="#000000" stroke="#000000" points="254.2721,-172.5001 264.272,-169 254.272,-165.5001 254.2721,-172.5001"/>
</g>
</g>
</svg>
