<?xml version="1.0" encoding="UTF-8" standalone="no"?>
<!DOCTYPE svg PUBLIC "-//W3C//DTD SVG 1.1//EN"
 "http://www.w3.org/Graphics/SVG/1.1/DTD/svg11.dtd">
<!-- Generated by graphviz version 2.40.1 (20161225.0304)
 -->
<!-- Title: dependencies Pages: 1 -->
<svg width="588pt" height="211pt"
 viewBox="0.00 0.00 588.00 211.00" xmlns="http://www.w3.org/2000/svg" xmlns:xlink="http://www.w3.org/1999/xlink">
<g id="graph0" class="graph" transform="scale(1 1) rotate(0) translate(4 207)">
<title>dependencies</title>
<polygon fill="#ffffff" stroke="transparent" points="-4,4 -4,-207 584,-207 584,4 -4,4"/>
<text text-anchor="start" x="269.0091" y="-42.4" font-family="sans-serif" font-weight="bold" font-size="14.00" fill="#000000">Legend</text>
<polygon fill="#ffffb3" stroke="transparent" points="56,-10 56,-30 76,-30 76,-10 56,-10"/>
<text text-anchor="start" x="79.629" y="-15.4" font-family="sans-serif" font-size="14.00" fill="#000000"> &#160;Declarations</text>
<polygon fill="#8dd3c7" stroke="transparent" points="169,-10 169,-30 189,-30 189,-10 169,-10"/>
<text text-anchor="start" x="192.7251" y="-15.4" font-family="sans-serif" font-size="14.00" fill="#000000"> &#160;Module</text>
<polygon fill="#80b1d3" stroke="transparent" points="255,-10 255,-30 275,-30 275,-10 255,-10"/>
<text text-anchor="start" x="278.7812" y="-15.4" font-family="sans-serif" font-size="14.00" fill="#000000"> &#160;Bootstrap</text>
<polygon fill="#fdb462" stroke="transparent" points="352,-10 352,-30 372,-30 372,-10 352,-10"/>
<text text-anchor="start" x="375.6732" y="-15.4" font-family="sans-serif" font-size="14.00" fill="#000000"> &#160;Providers</text>
<polygon fill="#fb8072" stroke="transparent" points="448,-10 448,-30 468,-30 468,-10 448,-10"/>
<text text-anchor="start" x="471.7258" y="-15.4" font-family="sans-serif" font-size="14.00" fill="#000000"> &#160;Exports</text>
<g id="clust1" class="cluster">
<title>cluster_ProfileModule</title>
<polygon fill="none" stroke="#000000" stroke-dasharray="1,5" points="8,-70 8,-195 572,-195 572,-70 8,-70"/>
</g>
<g id="clust2" class="cluster">
<title>cluster_ProfileModule_declarations</title>
<polygon fill="none" stroke="#000000" points="16,-78 16,-130 564,-130 564,-78 16,-78"/>
</g>
<!-- CompanyProfileComponent -->
<g id="node1" class="node">
<title>CompanyProfileComponent</title>
<polygon fill="#ffffb3" stroke="#000000" points="555.8738,-122 382.1262,-122 382.1262,-86 555.8738,-86 555.8738,-122"/>
<text text-anchor="middle" x="469" y="-99.8" font-family="Times,serif" font-size="14.00" fill="#000000">CompanyProfileComponent</text>
</g>
<!-- ProfileModule -->
<g id="node4" class="node">
<title>ProfileModule</title>
<polygon fill="#8dd3c7" stroke="#000000" points="324.65,-187 321.65,-191 300.65,-191 297.65,-187 227.35,-187 227.35,-151 324.65,-151 324.65,-187"/>
<text text-anchor="middle" x="276" y="-164.8" font-family="Times,serif" font-size="14.00" fill="#000000">ProfileModule</text>
</g>
<!-- CompanyProfileComponent&#45;&gt;ProfileModule -->
<g id="edge1" class="edge">
<title>CompanyProfileComponent&#45;&gt;ProfileModule</title>
<path fill="none" stroke="#000000" d="M469,-122.1061C469,-141.3391 469,-169 469,-169 469,-169 334.702,-169 334.702,-169"/>
<polygon fill="#000000" stroke="#000000" points="334.7021,-165.5001 324.702,-169 334.702,-172.5001 334.7021,-165.5001"/>
</g>
<!-- UpdatePasswordComponent -->
<g id="node2" class="node">
<title>UpdatePasswordComponent</title>
<polygon fill="#ffffb3" stroke="#000000" points="363.9129,-122 188.0871,-122 188.0871,-86 363.9129,-86 363.9129,-122"/>
<text text-anchor="middle" x="276" y="-99.8" font-family="Times,serif" font-size="14.00" fill="#000000">UpdatePasswordComponent</text>
</g>
<!-- UpdatePasswordComponent&#45;&gt;ProfileModule -->
<g id="edge2" class="edge">
<title>UpdatePasswordComponent&#45;&gt;ProfileModule</title>
<path fill="none" stroke="#000000" d="M276,-122.1061C276,-122.1061 276,-140.991 276,-140.991"/>
<polygon fill="#000000" stroke="#000000" points="272.5001,-140.9909 276,-150.991 279.5001,-140.991 272.5001,-140.9909"/>
</g>
<!-- UserProfileComponent -->
<g id="node3" class="node">
<title>UserProfileComponent</title>
<polygon fill="#ffffb3" stroke="#000000" points="169.8585,-122 24.1415,-122 24.1415,-86 169.8585,-86 169.8585,-122"/>
<text text-anchor="middle" x="97" y="-99.8" font-family="Times,serif" font-size="14.00" fill="#000000">UserProfileComponent</text>
</g>
<!-- UserProfileComponent&#45;&gt;ProfileModule -->
<g id="edge3" class="edge">
<title>UserProfileComponent&#45;&gt;ProfileModule</title>
<path fill="none" stroke="#000000" d="M97,-122.1061C97,-141.3391 97,-169 97,-169 97,-169 217.0875,-169 217.0875,-169"/>
<polygon fill="#000000" stroke="#000000" points="217.0875,-172.5001 227.0875,-169 217.0874,-165.5001 217.0875,-172.5001"/>
</g>
</g>
</svg>
