<?xml version="1.0" encoding="UTF-8" standalone="no"?>
<!DOCTYPE svg PUBLIC "-//W3C//DTD SVG 1.1//EN"
 "http://www.w3.org/Graphics/SVG/1.1/DTD/svg11.dtd">
<!-- Generated by graphviz version 2.40.1 (20161225.0304)
 -->
<!-- Title: dependencies Pages: 1 -->
<svg width="709pt" height="211pt"
 viewBox="0.00 0.00 709.00 211.00" xmlns="http://www.w3.org/2000/svg" xmlns:xlink="http://www.w3.org/1999/xlink">
<g id="graph0" class="graph" transform="scale(1 1) rotate(0) translate(4 207)">
<title>dependencies</title>
<polygon fill="#ffffff" stroke="transparent" points="-4,4 -4,-207 705,-207 705,4 -4,4"/>
<text text-anchor="start" x="329.5091" y="-42.4" font-family="sans-serif" font-weight="bold" font-size="14.00" fill="#000000">Legend</text>
<polygon fill="#ffffb3" stroke="transparent" points="116.5,-10 116.5,-30 136.5,-30 136.5,-10 116.5,-10"/>
<text text-anchor="start" x="140.129" y="-15.4" font-family="sans-serif" font-size="14.00" fill="#000000"> &#160;Declarations</text>
<polygon fill="#8dd3c7" stroke="transparent" points="229.5,-10 229.5,-30 249.5,-30 249.5,-10 229.5,-10"/>
<text text-anchor="start" x="253.2251" y="-15.4" font-family="sans-serif" font-size="14.00" fill="#000000"> &#160;Module</text>
<polygon fill="#80b1d3" stroke="transparent" points="315.5,-10 315.5,-30 335.5,-30 335.5,-10 315.5,-10"/>
<text text-anchor="start" x="339.2812" y="-15.4" font-family="sans-serif" font-size="14.00" fill="#000000"> &#160;Bootstrap</text>
<polygon fill="#fdb462" stroke="transparent" points="412.5,-10 412.5,-30 432.5,-30 432.5,-10 412.5,-10"/>
<text text-anchor="start" x="436.1732" y="-15.4" font-family="sans-serif" font-size="14.00" fill="#000000"> &#160;Providers</text>
<polygon fill="#fb8072" stroke="transparent" points="508.5,-10 508.5,-30 528.5,-30 528.5,-10 508.5,-10"/>
<text text-anchor="start" x="532.2258" y="-15.4" font-family="sans-serif" font-size="14.00" fill="#000000"> &#160;Exports</text>
<g id="clust1" class="cluster">
<title>cluster_EmployeeModule</title>
<polygon fill="none" stroke="#000000" stroke-dasharray="1,5" points="8,-70 8,-195 693,-195 693,-70 8,-70"/>
</g>
<g id="clust2" class="cluster">
<title>cluster_EmployeeModule_declarations</title>
<polygon fill="none" stroke="#000000" points="198,-78 198,-130 685,-130 685,-78 198,-78"/>
</g>
<g id="clust9" class="cluster">
<title>cluster_EmployeeModule_providers</title>
<polygon fill="none" stroke="#000000" points="16,-78 16,-130 190,-130 190,-78 16,-78"/>
</g>
<!-- ActionComponent -->
<g id="node1" class="node">
<title>ActionComponent</title>
<polygon fill="#ffffb3" stroke="#000000" points="676.9356,-122 557.0644,-122 557.0644,-86 676.9356,-86 676.9356,-122"/>
<text text-anchor="middle" x="617" y="-99.8" font-family="Times,serif" font-size="14.00" fill="#000000">ActionComponent</text>
</g>
<!-- EmployeeModule -->
<g id="node4" class="node">
<title>EmployeeModule</title>
<polygon fill="#8dd3c7" stroke="#000000" points="432.3132,-187 429.3132,-191 408.3132,-191 405.3132,-187 315.6868,-187 315.6868,-151 432.3132,-151 432.3132,-187"/>
<text text-anchor="middle" x="374" y="-164.8" font-family="Times,serif" font-size="14.00" fill="#000000">EmployeeModule</text>
</g>
<!-- ActionComponent&#45;&gt;EmployeeModule -->
<g id="edge1" class="edge">
<title>ActionComponent&#45;&gt;EmployeeModule</title>
<path fill="none" stroke="#000000" d="M617,-122.1061C617,-141.3391 617,-169 617,-169 617,-169 442.2046,-169 442.2046,-169"/>
<polygon fill="#000000" stroke="#000000" points="442.2046,-165.5001 432.2046,-169 442.2045,-172.5001 442.2046,-165.5001"/>
</g>
<!-- ActionParentComponent -->
<g id="node2" class="node">
<title>ActionParentComponent</title>
<polygon fill="#ffffb3" stroke="#000000" points="539.6979,-122 384.3021,-122 384.3021,-86 539.6979,-86 539.6979,-122"/>
<text text-anchor="middle" x="462" y="-99.8" font-family="Times,serif" font-size="14.00" fill="#000000">ActionParentComponent</text>
</g>
<!-- ActionParentComponent&#45;&gt;EmployeeModule -->
<g id="edge2" class="edge">
<title>ActionParentComponent&#45;&gt;EmployeeModule</title>
<path fill="none" stroke="#000000" d="M408.2788,-122.1061C408.2788,-122.1061 408.2788,-140.991 408.2788,-140.991"/>
<polygon fill="#000000" stroke="#000000" points="404.7788,-140.9909 408.2788,-150.991 411.7788,-140.991 404.7788,-140.9909"/>
</g>
<!-- EmployeeListComponent -->
<g id="node3" class="node">
<title>EmployeeListComponent</title>
<polygon fill="#ffffb3" stroke="#000000" points="365.8738,-122 206.1262,-122 206.1262,-86 365.8738,-86 365.8738,-122"/>
<text text-anchor="middle" x="286" y="-99.8" font-family="Times,serif" font-size="14.00" fill="#000000">EmployeeListComponent</text>
</g>
<!-- EmployeeListComponent&#45;&gt;EmployeeModule -->
<g id="edge3" class="edge">
<title>EmployeeListComponent&#45;&gt;EmployeeModule</title>
<path fill="none" stroke="#000000" d="M340.8903,-122.1061C340.8903,-122.1061 340.8903,-140.991 340.8903,-140.991"/>
<polygon fill="#000000" stroke="#000000" points="337.3903,-140.9909 340.8903,-150.991 344.3903,-140.991 337.3903,-140.9909"/>
</g>
<!-- EmployeeService -->
<g id="node5" class="node">
<title>EmployeeService</title>
<ellipse fill="#fdb462" stroke="#000000" cx="103" cy="-104" rx="79.2922" ry="18"/>
<text text-anchor="middle" x="103" y="-99.8" font-family="Times,serif" font-size="14.00" fill="#000000">EmployeeService</text>
</g>
<!-- EmployeeService&#45;&gt;EmployeeModule -->
<g id="edge4" class="edge">
<title>EmployeeService&#45;&gt;EmployeeModule</title>
<path fill="none" stroke="#000000" d="M103,-122.1061C103,-141.3391 103,-169 103,-169 103,-169 305.5307,-169 305.5307,-169"/>
<polygon fill="#000000" stroke="#000000" points="305.5307,-172.5001 315.5307,-169 305.5306,-165.5001 305.5307,-172.5001"/>
</g>
</g>
</svg>
