<?xml version="1.0" encoding="UTF-8" standalone="no"?>
<!DOCTYPE svg PUBLIC "-//W3C//DTD SVG 1.1//EN"
 "http://www.w3.org/Graphics/SVG/1.1/DTD/svg11.dtd">
<!-- Generated by graphviz version 2.40.1 (20161225.0304)
 -->
<!-- Title: dependencies Pages: 1 -->
<svg width="527pt" height="211pt"
 viewBox="0.00 0.00 527.00 211.00" xmlns="http://www.w3.org/2000/svg" xmlns:xlink="http://www.w3.org/1999/xlink">
<g id="graph0" class="graph" transform="scale(1 1) rotate(0) translate(4 207)">
<title>dependencies</title>
<polygon fill="#ffffff" stroke="transparent" points="-4,4 -4,-207 523,-207 523,4 -4,4"/>
<text text-anchor="start" x="238.5091" y="-42.4" font-family="sans-serif" font-weight="bold" font-size="14.00" fill="#000000">Legend</text>
<polygon fill="#ffffb3" stroke="transparent" points="25.5,-10 25.5,-30 45.5,-30 45.5,-10 25.5,-10"/>
<text text-anchor="start" x="49.129" y="-15.4" font-family="sans-serif" font-size="14.00" fill="#000000"> &#160;Declarations</text>
<polygon fill="#8dd3c7" stroke="transparent" points="138.5,-10 138.5,-30 158.5,-30 158.5,-10 138.5,-10"/>
<text text-anchor="start" x="162.2251" y="-15.4" font-family="sans-serif" font-size="14.00" fill="#000000"> &#160;Module</text>
<polygon fill="#80b1d3" stroke="transparent" points="224.5,-10 224.5,-30 244.5,-30 244.5,-10 224.5,-10"/>
<text text-anchor="start" x="248.2812" y="-15.4" font-family="sans-serif" font-size="14.00" fill="#000000"> &#160;Bootstrap</text>
<polygon fill="#fdb462" stroke="transparent" points="321.5,-10 321.5,-30 341.5,-30 341.5,-10 321.5,-10"/>
<text text-anchor="start" x="345.1732" y="-15.4" font-family="sans-serif" font-size="14.00" fill="#000000"> &#160;Providers</text>
<polygon fill="#fb8072" stroke="transparent" points="417.5,-10 417.5,-30 437.5,-30 437.5,-10 417.5,-10"/>
<text text-anchor="start" x="441.2258" y="-15.4" font-family="sans-serif" font-size="14.00" fill="#000000"> &#160;Exports</text>
<g id="clust1" class="cluster">
<title>cluster_EmployeeModule</title>
<polygon fill="none" stroke="#000000" stroke-dasharray="1,5" points="8,-70 8,-195 511,-195 511,-70 8,-70"/>
</g>
<g id="clust2" class="cluster">
<title>cluster_EmployeeModule_declarations</title>
<polygon fill="none" stroke="#000000" points="16,-78 16,-130 503,-130 503,-78 16,-78"/>
</g>
<!-- ActionComponent -->
<g id="node1" class="node">
<title>ActionComponent</title>
<polygon fill="#ffffb3" stroke="#000000" points="494.9356,-122 375.0644,-122 375.0644,-86 494.9356,-86 494.9356,-122"/>
<text text-anchor="middle" x="435" y="-99.8" font-family="Times,serif" font-size="14.00" fill="#000000">ActionComponent</text>
</g>
<!-- EmployeeModule -->
<g id="node4" class="node">
<title>EmployeeModule</title>
<polygon fill="#8dd3c7" stroke="#000000" points="338.3132,-187 335.3132,-191 314.3132,-191 311.3132,-187 221.6868,-187 221.6868,-151 338.3132,-151 338.3132,-187"/>
<text text-anchor="middle" x="280" y="-164.8" font-family="Times,serif" font-size="14.00" fill="#000000">EmployeeModule</text>
</g>
<!-- ActionComponent&#45;&gt;EmployeeModule -->
<g id="edge1" class="edge">
<title>ActionComponent&#45;&gt;EmployeeModule</title>
<path fill="none" stroke="#000000" d="M435,-122.1061C435,-141.3391 435,-169 435,-169 435,-169 348.1573,-169 348.1573,-169"/>
<polygon fill="#000000" stroke="#000000" points="348.1573,-165.5001 338.1573,-169 348.1572,-172.5001 348.1573,-165.5001"/>
</g>
<!-- ActionParentComponent -->
<g id="node2" class="node">
<title>ActionParentComponent</title>
<polygon fill="#ffffb3" stroke="#000000" points="357.6979,-122 202.3021,-122 202.3021,-86 357.6979,-86 357.6979,-122"/>
<text text-anchor="middle" x="280" y="-99.8" font-family="Times,serif" font-size="14.00" fill="#000000">ActionParentComponent</text>
</g>
<!-- ActionParentComponent&#45;&gt;EmployeeModule -->
<g id="edge2" class="edge">
<title>ActionParentComponent&#45;&gt;EmployeeModule</title>
<path fill="none" stroke="#000000" d="M280,-122.1061C280,-122.1061 280,-140.991 280,-140.991"/>
<polygon fill="#000000" stroke="#000000" points="276.5001,-140.9909 280,-150.991 283.5001,-140.991 276.5001,-140.9909"/>
</g>
<!-- EmployeeListComponent -->
<g id="node3" class="node">
<title>EmployeeListComponent</title>
<polygon fill="#ffffb3" stroke="#000000" points="183.8738,-122 24.1262,-122 24.1262,-86 183.8738,-86 183.8738,-122"/>
<text text-anchor="middle" x="104" y="-99.8" font-family="Times,serif" font-size="14.00" fill="#000000">EmployeeListComponent</text>
</g>
<!-- EmployeeListComponent&#45;&gt;EmployeeModule -->
<g id="edge3" class="edge">
<title>EmployeeListComponent&#45;&gt;EmployeeModule</title>
<path fill="none" stroke="#000000" d="M104,-122.1061C104,-141.3391 104,-169 104,-169 104,-169 211.3945,-169 211.3945,-169"/>
<polygon fill="#000000" stroke="#000000" points="211.3946,-172.5001 221.3945,-169 211.3945,-165.5001 211.3946,-172.5001"/>
</g>
</g>
</svg>
