<?xml version="1.0" encoding="UTF-8" standalone="no"?>
<!DOCTYPE svg PUBLIC "-//W3C//DTD SVG 1.1//EN"
 "http://www.w3.org/Graphics/SVG/1.1/DTD/svg11.dtd">
<!-- Generated by graphviz version 2.40.1 (20161225.0304)
 -->
<!-- Title: dependencies Pages: 1 -->
<svg width="1100pt" height="284pt"
 viewBox="0.00 0.00 1100.00 284.00" xmlns="http://www.w3.org/2000/svg" xmlns:xlink="http://www.w3.org/1999/xlink">
<g id="graph0" class="graph" transform="scale(1 1) rotate(0) translate(4 280)">
<title>dependencies</title>
<polygon fill="#ffffff" stroke="transparent" points="-4,4 -4,-280 1096,-280 1096,4 -4,4"/>
<text text-anchor="start" x="525.0091" y="-42.4" font-family="sans-serif" font-weight="bold" font-size="14.00" fill="#000000">Legend</text>
<polygon fill="#ffffb3" stroke="transparent" points="312,-10 312,-30 332,-30 332,-10 312,-10"/>
<text text-anchor="start" x="335.629" y="-15.4" font-family="sans-serif" font-size="14.00" fill="#000000"> &#160;Declarations</text>
<polygon fill="#8dd3c7" stroke="transparent" points="425,-10 425,-30 445,-30 445,-10 425,-10"/>
<text text-anchor="start" x="448.7251" y="-15.4" font-family="sans-serif" font-size="14.00" fill="#000000"> &#160;Module</text>
<polygon fill="#80b1d3" stroke="transparent" points="511,-10 511,-30 531,-30 531,-10 511,-10"/>
<text text-anchor="start" x="534.7812" y="-15.4" font-family="sans-serif" font-size="14.00" fill="#000000"> &#160;Bootstrap</text>
<polygon fill="#fdb462" stroke="transparent" points="608,-10 608,-30 628,-30 628,-10 608,-10"/>
<text text-anchor="start" x="631.6732" y="-15.4" font-family="sans-serif" font-size="14.00" fill="#000000"> &#160;Providers</text>
<polygon fill="#fb8072" stroke="transparent" points="704,-10 704,-30 724,-30 724,-10 704,-10"/>
<text text-anchor="start" x="727.7258" y="-15.4" font-family="sans-serif" font-size="14.00" fill="#000000"> &#160;Exports</text>
<g id="clust1" class="cluster">
<title>cluster_AppModule</title>
<polygon fill="none" stroke="#000000" stroke-dasharray="1,5" points="8,-70 8,-268 1084,-268 1084,-70 8,-70"/>
</g>
<g id="clust2" class="cluster">
<title>cluster_AppModule_declarations</title>
<polygon fill="none" stroke="#000000" points="954,-78 954,-130 1076,-130 1076,-78 954,-78"/>
</g>
<g id="clust4" class="cluster">
<title>cluster_AppModule_imports</title>
<polygon fill="none" stroke="#000000" points="842,-78 842,-130 946,-130 946,-78 842,-78"/>
</g>
<g id="clust6" class="cluster">
<title>cluster_AppModule_bootstrap</title>
<polygon fill="none" stroke="#000000" points="556,-208 556,-260 680,-260 680,-208 556,-208"/>
</g>
<g id="clust7" class="cluster">
<title>cluster_AppModule_providers</title>
<polygon fill="none" stroke="#000000" points="16,-78 16,-130 834,-130 834,-78 16,-78"/>
</g>
<!-- AppComponent -->
<g id="node1" class="node">
<title>AppComponent</title>
<polygon fill="#ffffb3" stroke="#000000" points="1067.9399,-122 962.0601,-122 962.0601,-86 1067.9399,-86 1067.9399,-122"/>
<text text-anchor="middle" x="1015" y="-99.8" font-family="Times,serif" font-size="14.00" fill="#000000">AppComponent</text>
</g>
<!-- AppModule -->
<g id="node2" class="node">
<title>AppModule</title>
<polygon fill="#8dd3c7" stroke="#000000" points="659.6571,-187 656.6571,-191 635.6571,-191 632.6571,-187 576.3429,-187 576.3429,-151 659.6571,-151 659.6571,-187"/>
<text text-anchor="middle" x="618" y="-164.8" font-family="Times,serif" font-size="14.00" fill="#000000">AppModule</text>
</g>
<!-- AppComponent&#45;&gt;AppModule -->
<g id="edge1" class="edge">
<title>AppComponent&#45;&gt;AppModule</title>
<path fill="none" stroke="#000000" d="M1015,-122.2921C1015,-144.2057 1015,-178 1015,-178 1015,-178 669.7356,-178 669.7356,-178"/>
<polygon fill="#000000" stroke="#000000" points="669.7356,-174.5001 659.7356,-178 669.7356,-181.5001 669.7356,-174.5001"/>
</g>
<!-- AppComponent  -->
<g id="node4" class="node">
<title>AppComponent </title>
<polygon fill="#80b1d3" stroke="#000000" points="672.439,-252 563.561,-252 563.561,-216 672.439,-216 672.439,-252"/>
<text text-anchor="middle" x="618" y="-229.8" font-family="Times,serif" font-size="14.00" fill="#000000">AppComponent </text>
</g>
<!-- AppModule&#45;&gt;AppComponent  -->
<g id="edge3" class="edge">
<title>AppModule&#45;&gt;AppComponent </title>
<path fill="none" stroke="#000000" stroke-dasharray="1,5" d="M618,-187.1061C618,-187.1061 618,-205.991 618,-205.991"/>
<polygon fill="#000000" stroke="#000000" points="614.5001,-205.9909 618,-215.991 621.5001,-205.991 614.5001,-205.9909"/>
</g>
<!-- AuthModule -->
<g id="node3" class="node">
<title>AuthModule</title>
<polygon fill="#8dd3c7" stroke="#000000" points="937.5482,-122 934.5482,-126 913.5482,-126 910.5482,-122 850.4518,-122 850.4518,-86 937.5482,-86 937.5482,-122"/>
<text text-anchor="middle" x="894" y="-99.8" font-family="Times,serif" font-size="14.00" fill="#000000">AuthModule</text>
</g>
<!-- AuthModule&#45;&gt;AppModule -->
<g id="edge2" class="edge">
<title>AuthModule&#45;&gt;AppModule</title>
<path fill="none" stroke="#000000" d="M894,-122.1061C894,-141.3391 894,-169 894,-169 894,-169 669.9185,-169 669.9185,-169"/>
<polygon fill="#000000" stroke="#000000" points="669.9185,-165.5001 659.9185,-169 669.9184,-172.5001 669.9185,-165.5001"/>
</g>
<!-- Api -->
<g id="node5" class="node">
<title>Api</title>
<ellipse fill="#fdb462" stroke="#000000" cx="799" cy="-104" rx="27" ry="18"/>
<text text-anchor="middle" x="799" y="-99.8" font-family="Times,serif" font-size="14.00" fill="#000000">Api</text>
</g>
<!-- Api&#45;&gt;AppModule -->
<g id="edge4" class="edge">
<title>Api&#45;&gt;AppModule</title>
<path fill="none" stroke="#000000" d="M799,-122.027C799,-138.3976 799,-160 799,-160 799,-160 669.98,-160 669.98,-160"/>
<polygon fill="#000000" stroke="#000000" points="669.98,-156.5001 659.98,-160 669.9799,-163.5001 669.98,-156.5001"/>
</g>
<!-- AuthService -->
<g id="node6" class="node">
<title>AuthService</title>
<ellipse fill="#fdb462" stroke="#000000" cx="695" cy="-104" rx="59.1083" ry="18"/>
<text text-anchor="middle" x="695" y="-99.8" font-family="Times,serif" font-size="14.00" fill="#000000">AuthService</text>
</g>
<!-- AuthService&#45;&gt;AppModule -->
<g id="edge5" class="edge">
<title>AuthService&#45;&gt;AppModule</title>
<path fill="none" stroke="#000000" d="M647.7622,-115.0264C647.7622,-115.0264 647.7622,-140.7791 647.7622,-140.7791"/>
<polygon fill="#000000" stroke="#000000" points="644.2623,-140.779 647.7622,-150.7791 651.2623,-140.7791 644.2623,-140.779"/>
</g>
<!-- BaseUrlProvider -->
<g id="node7" class="node">
<title>BaseUrlProvider</title>
<ellipse fill="#fdb462" stroke="#000000" cx="542" cy="-104" rx="75.8586" ry="18"/>
<text text-anchor="middle" x="542" y="-99.8" font-family="Times,serif" font-size="14.00" fill="#000000">BaseUrlProvider</text>
</g>
<!-- BaseUrlProvider&#45;&gt;AppModule -->
<g id="edge6" class="edge">
<title>BaseUrlProvider&#45;&gt;AppModule</title>
<path fill="none" stroke="#000000" d="M597.0505,-116.5327C597.0505,-116.5327 597.0505,-140.8507 597.0505,-140.8507"/>
<polygon fill="#000000" stroke="#000000" points="593.5506,-140.8506 597.0505,-150.8507 600.5506,-140.8507 593.5506,-140.8506"/>
</g>
<!-- CommonService -->
<g id="node8" class="node">
<title>CommonService</title>
<ellipse fill="#fdb462" stroke="#000000" cx="372" cy="-104" rx="75.8836" ry="18"/>
<text text-anchor="middle" x="372" y="-99.8" font-family="Times,serif" font-size="14.00" fill="#000000">CommonService</text>
</g>
<!-- CommonService&#45;&gt;AppModule -->
<g id="edge7" class="edge">
<title>CommonService&#45;&gt;AppModule</title>
<path fill="none" stroke="#000000" d="M372,-122.027C372,-138.3976 372,-160 372,-160 372,-160 566.2695,-160 566.2695,-160"/>
<polygon fill="#000000" stroke="#000000" points="566.2695,-163.5001 576.2695,-160 566.2694,-156.5001 566.2695,-163.5001"/>
</g>
<!-- JWTUtils -->
<g id="node9" class="node">
<title>JWTUtils</title>
<ellipse fill="#fdb462" stroke="#000000" cx="229" cy="-104" rx="48.6694" ry="18"/>
<text text-anchor="middle" x="229" y="-99.8" font-family="Times,serif" font-size="14.00" fill="#000000">JWTUtils</text>
</g>
<!-- JWTUtils&#45;&gt;AppModule -->
<g id="edge8" class="edge">
<title>JWTUtils&#45;&gt;AppModule</title>
<path fill="none" stroke="#000000" d="M229,-122.1061C229,-141.3391 229,-169 229,-169 229,-169 566.0006,-169 566.0006,-169"/>
<polygon fill="#000000" stroke="#000000" points="566.0006,-172.5001 576.0006,-169 566.0006,-165.5001 566.0006,-172.5001"/>
</g>
<!-- SessionService -->
<g id="node10" class="node">
<title>SessionService</title>
<ellipse fill="#fdb462" stroke="#000000" cx="93" cy="-104" rx="69.4974" ry="18"/>
<text text-anchor="middle" x="93" y="-99.8" font-family="Times,serif" font-size="14.00" fill="#000000">SessionService</text>
</g>
<!-- SessionService&#45;&gt;AppModule -->
<g id="edge9" class="edge">
<title>SessionService&#45;&gt;AppModule</title>
<path fill="none" stroke="#000000" d="M93,-122.2921C93,-144.2057 93,-178 93,-178 93,-178 565.9245,-178 565.9245,-178"/>
<polygon fill="#000000" stroke="#000000" points="565.9245,-181.5001 575.9245,-178 565.9245,-174.5001 565.9245,-181.5001"/>
</g>
</g>
</svg>
