<?xml version="1.0" encoding="UTF-8" standalone="no"?>
<!DOCTYPE svg PUBLIC "-//W3C//DTD SVG 1.1//EN"
 "http://www.w3.org/Graphics/SVG/1.1/DTD/svg11.dtd">
<!-- Generated by graphviz version 2.40.1 (20161225.0304)
 -->
<!-- Title: dependencies Pages: 1 -->
<svg width="1471pt" height="284pt"
 viewBox="0.00 0.00 1471.00 284.00" xmlns="http://www.w3.org/2000/svg" xmlns:xlink="http://www.w3.org/1999/xlink">
<g id="graph0" class="graph" transform="scale(1 1) rotate(0) translate(4 280)">
<title>dependencies</title>
<polygon fill="#ffffff" stroke="transparent" points="-4,4 -4,-280 1467,-280 1467,4 -4,4"/>
<text text-anchor="start" x="710.5091" y="-42.4" font-family="sans-serif" font-weight="bold" font-size="14.00" fill="#000000">Legend</text>
<polygon fill="#ffffb3" stroke="transparent" points="497.5,-10 497.5,-30 517.5,-30 517.5,-10 497.5,-10"/>
<text text-anchor="start" x="521.129" y="-15.4" font-family="sans-serif" font-size="14.00" fill="#000000"> &#160;Declarations</text>
<polygon fill="#8dd3c7" stroke="transparent" points="610.5,-10 610.5,-30 630.5,-30 630.5,-10 610.5,-10"/>
<text text-anchor="start" x="634.2251" y="-15.4" font-family="sans-serif" font-size="14.00" fill="#000000"> &#160;Module</text>
<polygon fill="#80b1d3" stroke="transparent" points="696.5,-10 696.5,-30 716.5,-30 716.5,-10 696.5,-10"/>
<text text-anchor="start" x="720.2812" y="-15.4" font-family="sans-serif" font-size="14.00" fill="#000000"> &#160;Bootstrap</text>
<polygon fill="#fdb462" stroke="transparent" points="793.5,-10 793.5,-30 813.5,-30 813.5,-10 793.5,-10"/>
<text text-anchor="start" x="817.1732" y="-15.4" font-family="sans-serif" font-size="14.00" fill="#000000"> &#160;Providers</text>
<polygon fill="#fb8072" stroke="transparent" points="889.5,-10 889.5,-30 909.5,-30 909.5,-10 889.5,-10"/>
<text text-anchor="start" x="913.2258" y="-15.4" font-family="sans-serif" font-size="14.00" fill="#000000"> &#160;Exports</text>
<g id="clust1" class="cluster">
<title>cluster_AppModule</title>
<polygon fill="none" stroke="#000000" stroke-dasharray="1,5" points="8,-70 8,-268 1455,-268 1455,-70 8,-70"/>
</g>
<g id="clust2" class="cluster">
<title>cluster_AppModule_declarations</title>
<polygon fill="none" stroke="#000000" points="1325,-78 1325,-130 1447,-130 1447,-78 1325,-78"/>
</g>
<g id="clust4" class="cluster">
<title>cluster_AppModule_imports</title>
<polygon fill="none" stroke="#000000" points="1213,-78 1213,-130 1317,-130 1317,-78 1213,-78"/>
</g>
<g id="clust6" class="cluster">
<title>cluster_AppModule_bootstrap</title>
<polygon fill="none" stroke="#000000" points="706,-208 706,-260 830,-260 830,-208 706,-208"/>
</g>
<g id="clust7" class="cluster">
<title>cluster_AppModule_providers</title>
<polygon fill="none" stroke="#000000" points="16,-78 16,-130 1205,-130 1205,-78 16,-78"/>
</g>
<!-- AppComponent -->
<g id="node1" class="node">
<title>AppComponent</title>
<polygon fill="#ffffb3" stroke="#000000" points="1438.9399,-122 1333.0601,-122 1333.0601,-86 1438.9399,-86 1438.9399,-122"/>
<text text-anchor="middle" x="1386" y="-99.8" font-family="Times,serif" font-size="14.00" fill="#000000">AppComponent</text>
</g>
<!-- AppModule -->
<g id="node2" class="node">
<title>AppModule</title>
<polygon fill="#8dd3c7" stroke="#000000" points="809.6571,-187 806.6571,-191 785.6571,-191 782.6571,-187 726.3429,-187 726.3429,-151 809.6571,-151 809.6571,-187"/>
<text text-anchor="middle" x="768" y="-164.8" font-family="Times,serif" font-size="14.00" fill="#000000">AppModule</text>
</g>
<!-- AppComponent&#45;&gt;AppModule -->
<g id="edge1" class="edge">
<title>AppComponent&#45;&gt;AppModule</title>
<path fill="none" stroke="#000000" d="M1386,-122.0109C1386,-144.4852 1386,-180 1386,-180 1386,-180 819.9918,-180 819.9918,-180"/>
<polygon fill="#000000" stroke="#000000" points="819.9918,-176.5001 809.9918,-180 819.9918,-183.5001 819.9918,-176.5001"/>
</g>
<!-- AppComponent  -->
<g id="node4" class="node">
<title>AppComponent </title>
<polygon fill="#80b1d3" stroke="#000000" points="822.439,-252 713.561,-252 713.561,-216 822.439,-216 822.439,-252"/>
<text text-anchor="middle" x="768" y="-229.8" font-family="Times,serif" font-size="14.00" fill="#000000">AppComponent </text>
</g>
<!-- AppModule&#45;&gt;AppComponent  -->
<g id="edge3" class="edge">
<title>AppModule&#45;&gt;AppComponent </title>
<path fill="none" stroke="#000000" stroke-dasharray="1,5" d="M768,-187.1061C768,-187.1061 768,-205.991 768,-205.991"/>
<polygon fill="#000000" stroke="#000000" points="764.5001,-205.9909 768,-215.991 771.5001,-205.991 764.5001,-205.9909"/>
</g>
<!-- AuthModule -->
<g id="node3" class="node">
<title>AuthModule</title>
<polygon fill="#8dd3c7" stroke="#000000" points="1308.5482,-122 1305.5482,-126 1284.5482,-126 1281.5482,-122 1221.4518,-122 1221.4518,-86 1308.5482,-86 1308.5482,-122"/>
<text text-anchor="middle" x="1265" y="-99.8" font-family="Times,serif" font-size="14.00" fill="#000000">AuthModule</text>
</g>
<!-- AuthModule&#45;&gt;AppModule -->
<g id="edge2" class="edge">
<title>AuthModule&#45;&gt;AppModule</title>
<path fill="none" stroke="#000000" d="M1265,-122.1289C1265,-142.5724 1265,-173 1265,-173 1265,-173 819.9456,-173 819.9456,-173"/>
<polygon fill="#000000" stroke="#000000" points="819.9456,-169.5001 809.9456,-173 819.9456,-176.5001 819.9456,-169.5001"/>
</g>
<!-- AppService -->
<g id="node5" class="node">
<title>AppService</title>
<ellipse fill="#fdb462" stroke="#000000" cx="1140" cy="-104" rx="56.7406" ry="18"/>
<text text-anchor="middle" x="1140" y="-99.8" font-family="Times,serif" font-size="14.00" fill="#000000">AppService</text>
</g>
<!-- AppService&#45;&gt;AppModule -->
<g id="edge4" class="edge">
<title>AppService&#45;&gt;AppModule</title>
<path fill="none" stroke="#000000" d="M1140,-122.2667C1140,-140.5552 1140,-166 1140,-166 1140,-166 819.95,-166 819.95,-166"/>
<polygon fill="#000000" stroke="#000000" points="819.95,-162.5001 809.95,-166 819.95,-169.5001 819.95,-162.5001"/>
</g>
<!-- AuthService -->
<g id="node6" class="node">
<title>AuthService</title>
<ellipse fill="#fdb462" stroke="#000000" cx="1006" cy="-104" rx="59.1083" ry="18"/>
<text text-anchor="middle" x="1006" y="-99.8" font-family="Times,serif" font-size="14.00" fill="#000000">AuthService</text>
</g>
<!-- AuthService&#45;&gt;AppModule -->
<g id="edge5" class="edge">
<title>AuthService&#45;&gt;AppModule</title>
<path fill="none" stroke="#000000" d="M1006,-122.0091C1006,-138.0494 1006,-159 1006,-159 1006,-159 819.7288,-159 819.7288,-159"/>
<polygon fill="#000000" stroke="#000000" points="819.7288,-155.5001 809.7288,-159 819.7287,-162.5001 819.7288,-155.5001"/>
</g>
<!-- BaseUrlProvider -->
<g id="node7" class="node">
<title>BaseUrlProvider</title>
<ellipse fill="#fdb462" stroke="#000000" cx="853" cy="-104" rx="75.8586" ry="18"/>
<text text-anchor="middle" x="853" y="-99.8" font-family="Times,serif" font-size="14.00" fill="#000000">BaseUrlProvider</text>
</g>
<!-- BaseUrlProvider&#45;&gt;AppModule -->
<g id="edge6" class="edge">
<title>BaseUrlProvider&#45;&gt;AppModule</title>
<path fill="none" stroke="#000000" d="M793.4495,-115.3221C793.4495,-115.3221 793.4495,-140.9424 793.4495,-140.9424"/>
<polygon fill="#000000" stroke="#000000" points="789.9496,-140.9424 793.4495,-150.9424 796.9496,-140.9425 789.9496,-140.9424"/>
</g>
<!-- CommonService -->
<g id="node8" class="node">
<title>CommonService</title>
<ellipse fill="#fdb462" stroke="#000000" cx="683" cy="-104" rx="75.8836" ry="18"/>
<text text-anchor="middle" x="683" y="-99.8" font-family="Times,serif" font-size="14.00" fill="#000000">CommonService</text>
</g>
<!-- CommonService&#45;&gt;AppModule -->
<g id="edge7" class="edge">
<title>CommonService&#45;&gt;AppModule</title>
<path fill="none" stroke="#000000" d="M742.5568,-115.3221C742.5568,-115.3221 742.5568,-140.9424 742.5568,-140.9424"/>
<polygon fill="#000000" stroke="#000000" points="739.0569,-140.9424 742.5568,-150.9424 746.0569,-140.9425 739.0569,-140.9424"/>
</g>
<!-- EmployeeService -->
<g id="node9" class="node">
<title>EmployeeService</title>
<ellipse fill="#fdb462" stroke="#000000" cx="510" cy="-104" rx="79.2922" ry="18"/>
<text text-anchor="middle" x="510" y="-99.8" font-family="Times,serif" font-size="14.00" fill="#000000">EmployeeService</text>
</g>
<!-- EmployeeService&#45;&gt;AppModule -->
<g id="edge8" class="edge">
<title>EmployeeService&#45;&gt;AppModule</title>
<path fill="none" stroke="#000000" d="M510,-122.0091C510,-138.0494 510,-159 510,-159 510,-159 716.2611,-159 716.2611,-159"/>
<polygon fill="#000000" stroke="#000000" points="716.2611,-162.5001 726.2611,-159 716.2611,-155.5001 716.2611,-162.5001"/>
</g>
<!-- JWTUtils -->
<g id="node10" class="node">
<title>JWTUtils</title>
<ellipse fill="#fdb462" stroke="#000000" cx="364" cy="-104" rx="48.6694" ry="18"/>
<text text-anchor="middle" x="364" y="-99.8" font-family="Times,serif" font-size="14.00" fill="#000000">JWTUtils</text>
</g>
<!-- JWTUtils&#45;&gt;AppModule -->
<g id="edge9" class="edge">
<title>JWTUtils&#45;&gt;AppModule</title>
<path fill="none" stroke="#000000" d="M364,-122.2667C364,-140.5552 364,-166 364,-166 364,-166 716.2866,-166 716.2866,-166"/>
<polygon fill="#000000" stroke="#000000" points="716.2866,-169.5001 726.2866,-166 716.2865,-162.5001 716.2866,-169.5001"/>
</g>
<!-- SessionService -->
<g id="node11" class="node">
<title>SessionService</title>
<ellipse fill="#fdb462" stroke="#000000" cx="228" cy="-104" rx="69.4974" ry="18"/>
<text text-anchor="middle" x="228" y="-99.8" font-family="Times,serif" font-size="14.00" fill="#000000">SessionService</text>
</g>
<!-- SessionService&#45;&gt;AppModule -->
<g id="edge10" class="edge">
<title>SessionService&#45;&gt;AppModule</title>
<path fill="none" stroke="#000000" d="M228,-122.1289C228,-142.5724 228,-173 228,-173 228,-173 716.0764,-173 716.0764,-173"/>
<polygon fill="#000000" stroke="#000000" points="716.0765,-176.5001 726.0764,-173 716.0764,-169.5001 716.0765,-176.5001"/>
</g>
<!-- UserService -->
<g id="node12" class="node">
<title>UserService</title>
<ellipse fill="#fdb462" stroke="#000000" cx="82" cy="-104" rx="58.4415" ry="18"/>
<text text-anchor="middle" x="82" y="-99.8" font-family="Times,serif" font-size="14.00" fill="#000000">UserService</text>
</g>
<!-- UserService&#45;&gt;AppModule -->
<g id="edge11" class="edge">
<title>UserService&#45;&gt;AppModule</title>
<path fill="none" stroke="#000000" d="M82,-122.0109C82,-144.4852 82,-180 82,-180 82,-180 716.1203,-180 716.1203,-180"/>
<polygon fill="#000000" stroke="#000000" points="716.1203,-183.5001 726.1203,-180 716.1202,-176.5001 716.1203,-183.5001"/>
</g>
</g>
</svg>
