<?xml version="1.0" encoding="UTF-8" standalone="no"?>
<!DOCTYPE svg PUBLIC "-//W3C//DTD SVG 1.1//EN"
 "http://www.w3.org/Graphics/SVG/1.1/DTD/svg11.dtd">
<!-- Generated by graphviz version 2.40.1 (20161225.0304)
 -->
<!-- Title: dependencies Pages: 1 -->
<svg width="3638pt" height="363pt"
 viewBox="0.00 0.00 3638.00 363.00" xmlns="http://www.w3.org/2000/svg" xmlns:xlink="http://www.w3.org/1999/xlink">
<g id="graph0" class="graph" transform="scale(1 1) rotate(0) translate(4 359)">
<title>dependencies</title>
<polygon fill="#ffffff" stroke="transparent" points="-4,4 -4,-359 3634,-359 3634,4 -4,4"/>
<text text-anchor="start" x="1794.0091" y="-42.4" font-family="sans-serif" font-weight="bold" font-size="14.00" fill="#000000">Legend</text>
<polygon fill="#ffffb3" stroke="transparent" points="1581,-10 1581,-30 1601,-30 1601,-10 1581,-10"/>
<text text-anchor="start" x="1604.629" y="-15.4" font-family="sans-serif" font-size="14.00" fill="#000000"> &#160;Declarations</text>
<polygon fill="#8dd3c7" stroke="transparent" points="1694,-10 1694,-30 1714,-30 1714,-10 1694,-10"/>
<text text-anchor="start" x="1717.7251" y="-15.4" font-family="sans-serif" font-size="14.00" fill="#000000"> &#160;Module</text>
<polygon fill="#80b1d3" stroke="transparent" points="1780,-10 1780,-30 1800,-30 1800,-10 1780,-10"/>
<text text-anchor="start" x="1803.7812" y="-15.4" font-family="sans-serif" font-size="14.00" fill="#000000"> &#160;Bootstrap</text>
<polygon fill="#fdb462" stroke="transparent" points="1877,-10 1877,-30 1897,-30 1897,-10 1877,-10"/>
<text text-anchor="start" x="1900.6732" y="-15.4" font-family="sans-serif" font-size="14.00" fill="#000000"> &#160;Providers</text>
<polygon fill="#fb8072" stroke="transparent" points="1973,-10 1973,-30 1993,-30 1993,-10 1973,-10"/>
<text text-anchor="start" x="1996.7258" y="-15.4" font-family="sans-serif" font-size="14.00" fill="#000000"> &#160;Exports</text>
<g id="clust1" class="cluster">
<title>cluster_AppModule</title>
<polygon fill="none" stroke="#000000" stroke-dasharray="1,5" points="519,-146 519,-347 1906,-347 1906,-146 519,-146"/>
</g>
<g id="clust2" class="cluster">
<title>cluster_AppModule_declarations</title>
<polygon fill="none" stroke="#000000" points="1776,-154 1776,-206 1898,-206 1898,-154 1776,-154"/>
</g>
<g id="clust4" class="cluster">
<title>cluster_AppModule_imports</title>
<polygon fill="none" stroke="#000000" points="1664,-154 1664,-206 1768,-206 1768,-154 1664,-154"/>
</g>
<g id="clust6" class="cluster">
<title>cluster_AppModule_bootstrap</title>
<polygon fill="none" stroke="#000000" points="1244,-287 1244,-339 1368,-339 1368,-287 1244,-287"/>
</g>
<g id="clust7" class="cluster">
<title>cluster_AppModule_providers</title>
<polygon fill="none" stroke="#000000" points="527,-154 527,-206 1656,-206 1656,-154 527,-154"/>
</g>
<g id="clust8" class="cluster">
<title>cluster_AuthModule</title>
<polygon fill="none" stroke="#000000" stroke-dasharray="1,5" points="1416,-70 1416,-138 2027,-138 2027,-70 1416,-70"/>
</g>
<g id="clust9" class="cluster">
<title>cluster_AuthModule_declarations</title>
<polygon fill="none" stroke="#000000" points="1424,-78 1424,-130 2019,-130 2019,-78 1424,-78"/>
</g>
<g id="clust18" class="cluster">
<title>cluster_DashboardModule</title>
<polygon fill="none" stroke="#000000" stroke-dasharray="1,5" points="2035,-70 2035,-206 2471,-206 2471,-70 2035,-70"/>
</g>
<g id="clust19" class="cluster">
<title>cluster_DashboardModule_declarations</title>
<polygon fill="none" stroke="#000000" points="2043,-78 2043,-130 2463,-130 2463,-78 2043,-78"/>
</g>
<g id="clust27" class="cluster">
<title>cluster_EmployeeModule</title>
<polygon fill="none" stroke="#000000" stroke-dasharray="1,5" points="8,-146 8,-271 511,-271 511,-146 8,-146"/>
</g>
<g id="clust28" class="cluster">
<title>cluster_EmployeeModule_declarations</title>
<polygon fill="none" stroke="#000000" points="16,-154 16,-206 503,-206 503,-154 16,-154"/>
</g>
<g id="clust36" class="cluster">
<title>cluster_LayoutModule</title>
<polygon fill="none" stroke="#000000" stroke-dasharray="1,5" points="2479,-70 2479,-279 3050,-279 3050,-70 2479,-70"/>
</g>
<g id="clust37" class="cluster">
<title>cluster_LayoutModule_declarations</title>
<polygon fill="none" stroke="#000000" points="2487,-78 2487,-130 3042,-130 3042,-78 2487,-78"/>
</g>
<g id="clust44" class="cluster">
<title>cluster_LayoutModule_bootstrap</title>
<polygon fill="none" stroke="#000000" points="2697,-219 2697,-271 2837,-271 2837,-219 2697,-219"/>
</g>
<g id="clust46" class="cluster">
<title>cluster_ProfileModule</title>
<polygon fill="none" stroke="#000000" stroke-dasharray="1,5" points="3058,-70 3058,-206 3622,-206 3622,-70 3058,-70"/>
</g>
<g id="clust47" class="cluster">
<title>cluster_ProfileModule_declarations</title>
<polygon fill="none" stroke="#000000" points="3066,-78 3066,-130 3614,-130 3614,-78 3066,-78"/>
</g>
<!-- AppComponent -->
<g id="node1" class="node">
<title>AppComponent</title>
<polygon fill="#ffffb3" stroke="#000000" points="1889.9399,-198 1784.0601,-198 1784.0601,-162 1889.9399,-162 1889.9399,-198"/>
<text text-anchor="middle" x="1837" y="-175.8" font-family="Times,serif" font-size="14.00" fill="#000000">AppComponent</text>
</g>
<!-- AppModule -->
<g id="node2" class="node">
<title>AppModule</title>
<polygon fill="#8dd3c7" stroke="#000000" points="1347.6571,-263 1344.6571,-267 1323.6571,-267 1320.6571,-263 1264.3429,-263 1264.3429,-227 1347.6571,-227 1347.6571,-263"/>
<text text-anchor="middle" x="1306" y="-240.8" font-family="Times,serif" font-size="14.00" fill="#000000">AppModule</text>
</g>
<!-- AppComponent&#45;&gt;AppModule -->
<g id="edge1" class="edge">
<title>AppComponent&#45;&gt;AppModule</title>
<path fill="none" stroke="#000000" d="M1837,-198.0109C1837,-220.4852 1837,-256 1837,-256 1837,-256 1357.6667,-256 1357.6667,-256"/>
<polygon fill="#000000" stroke="#000000" points="1357.6667,-252.5001 1347.6667,-256 1357.6666,-259.5001 1357.6667,-252.5001"/>
</g>
<!-- AppComponent  -->
<g id="node4" class="node">
<title>AppComponent </title>
<polygon fill="#80b1d3" stroke="#000000" points="1360.439,-331 1251.561,-331 1251.561,-295 1360.439,-295 1360.439,-331"/>
<text text-anchor="middle" x="1306" y="-308.8" font-family="Times,serif" font-size="14.00" fill="#000000">AppComponent </text>
</g>
<!-- AppModule&#45;&gt;AppComponent  -->
<g id="edge3" class="edge">
<title>AppModule&#45;&gt;AppComponent </title>
<path fill="none" stroke="#000000" stroke-dasharray="1,5" d="M1306,-263.2228C1306,-263.2228 1306,-284.7269 1306,-284.7269"/>
<polygon fill="#000000" stroke="#000000" points="1302.5001,-284.7269 1306,-294.7269 1309.5001,-284.727 1302.5001,-284.7269"/>
</g>
<!-- AuthModule -->
<g id="node3" class="node">
<title>AuthModule</title>
<polygon fill="#8dd3c7" stroke="#000000" points="1759.5482,-198 1756.5482,-202 1735.5482,-202 1732.5482,-198 1672.4518,-198 1672.4518,-162 1759.5482,-162 1759.5482,-198"/>
<text text-anchor="middle" x="1716" y="-175.8" font-family="Times,serif" font-size="14.00" fill="#000000">AuthModule</text>
</g>
<!-- AuthModule&#45;&gt;AppModule -->
<g id="edge2" class="edge">
<title>AuthModule&#45;&gt;AppModule</title>
<path fill="none" stroke="#000000" d="M1716,-198.1289C1716,-218.5724 1716,-249 1716,-249 1716,-249 1357.9504,-249 1357.9504,-249"/>
<polygon fill="#000000" stroke="#000000" points="1357.9504,-245.5001 1347.9504,-249 1357.9504,-252.5001 1357.9504,-245.5001"/>
</g>
<!-- Api -->
<g id="node5" class="node">
<title>Api</title>
<ellipse fill="#fdb462" stroke="#000000" cx="1487" cy="-180" rx="27" ry="18"/>
<text text-anchor="middle" x="1487" y="-175.8" font-family="Times,serif" font-size="14.00" fill="#000000">Api</text>
</g>
<!-- Api&#45;&gt;AppModule -->
<g id="edge4" class="edge">
<title>Api&#45;&gt;AppModule</title>
<path fill="none" stroke="#000000" d="M1487,-198.0091C1487,-214.0494 1487,-235 1487,-235 1487,-235 1357.98,-235 1357.98,-235"/>
<polygon fill="#000000" stroke="#000000" points="1357.98,-231.5001 1347.98,-235 1357.9799,-238.5001 1357.98,-231.5001"/>
</g>
<!-- AuthService -->
<g id="node6" class="node">
<title>AuthService</title>
<ellipse fill="#fdb462" stroke="#000000" cx="1383" cy="-180" rx="59.1083" ry="18"/>
<text text-anchor="middle" x="1383" y="-175.8" font-family="Times,serif" font-size="14.00" fill="#000000">AuthService</text>
</g>
<!-- AuthService&#45;&gt;AppModule -->
<g id="edge5" class="edge">
<title>AuthService&#45;&gt;AppModule</title>
<path fill="none" stroke="#000000" d="M1335.7622,-191.0264C1335.7622,-191.0264 1335.7622,-216.7791 1335.7622,-216.7791"/>
<polygon fill="#000000" stroke="#000000" points="1332.2623,-216.779 1335.7622,-226.7791 1339.2623,-216.7791 1332.2623,-216.779"/>
</g>
<!-- BaseUrlProvider -->
<g id="node7" class="node">
<title>BaseUrlProvider</title>
<ellipse fill="#fdb462" stroke="#000000" cx="1230" cy="-180" rx="75.8586" ry="18"/>
<text text-anchor="middle" x="1230" y="-175.8" font-family="Times,serif" font-size="14.00" fill="#000000">BaseUrlProvider</text>
</g>
<!-- BaseUrlProvider&#45;&gt;AppModule -->
<g id="edge6" class="edge">
<title>BaseUrlProvider&#45;&gt;AppModule</title>
<path fill="none" stroke="#000000" d="M1285.0505,-192.5327C1285.0505,-192.5327 1285.0505,-216.8507 1285.0505,-216.8507"/>
<polygon fill="#000000" stroke="#000000" points="1281.5506,-216.8506 1285.0505,-226.8507 1288.5506,-216.8507 1281.5506,-216.8506"/>
</g>
<!-- CommonService -->
<g id="node8" class="node">
<title>CommonService</title>
<ellipse fill="#fdb462" stroke="#000000" cx="1060" cy="-180" rx="75.8836" ry="18"/>
<text text-anchor="middle" x="1060" y="-175.8" font-family="Times,serif" font-size="14.00" fill="#000000">CommonService</text>
</g>
<!-- CommonService&#45;&gt;AppModule -->
<g id="edge7" class="edge">
<title>CommonService&#45;&gt;AppModule</title>
<path fill="none" stroke="#000000" d="M1060,-198.0225C1060,-215.3734 1060,-239 1060,-239 1060,-239 1254.2695,-239 1254.2695,-239"/>
<polygon fill="#000000" stroke="#000000" points="1254.2695,-242.5001 1264.2695,-239 1254.2694,-235.5001 1254.2695,-242.5001"/>
</g>
<!-- EmployeeService -->
<g id="node9" class="node">
<title>EmployeeService</title>
<ellipse fill="#fdb462" stroke="#000000" cx="614" cy="-180" rx="79.2922" ry="18"/>
<text text-anchor="middle" x="614" y="-175.8" font-family="Times,serif" font-size="14.00" fill="#000000">EmployeeService</text>
</g>
<!-- EmployeeService&#45;&gt;AppModule -->
<g id="edge8" class="edge">
<title>EmployeeService&#45;&gt;AppModule</title>
<path fill="none" stroke="#000000" d="M640.382,-197.0888C640.382,-219.7736 640.382,-257 640.382,-257 640.382,-257 1254.1105,-257 1254.1105,-257"/>
<polygon fill="#000000" stroke="#000000" points="1254.1105,-260.5001 1264.1105,-257 1254.1104,-253.5001 1254.1105,-260.5001"/>
</g>
<!-- EmployeeModule -->
<g id="node24" class="node">
<title>EmployeeModule</title>
<polygon fill="#8dd3c7" stroke="#000000" points="415.3132,-263 412.3132,-267 391.3132,-267 388.3132,-263 298.6868,-263 298.6868,-227 415.3132,-227 415.3132,-263"/>
<text text-anchor="middle" x="357" y="-240.8" font-family="Times,serif" font-size="14.00" fill="#000000">EmployeeModule</text>
</g>
<!-- EmployeeService&#45;&gt;EmployeeModule -->
<g id="edge22" class="edge">
<title>EmployeeService&#45;&gt;EmployeeModule</title>
<path fill="none" stroke="#000000" d="M587.618,-197.0613C587.618,-212.5549 587.618,-233 587.618,-233 587.618,-233 425.1947,-233 425.1947,-233"/>
<polygon fill="#000000" stroke="#000000" points="425.1947,-229.5001 415.1947,-233 425.1946,-236.5001 425.1947,-229.5001"/>
</g>
<!-- JWTUtils -->
<g id="node10" class="node">
<title>JWTUtils</title>
<ellipse fill="#fdb462" stroke="#000000" cx="917" cy="-180" rx="48.6694" ry="18"/>
<text text-anchor="middle" x="917" y="-175.8" font-family="Times,serif" font-size="14.00" fill="#000000">JWTUtils</text>
</g>
<!-- JWTUtils&#45;&gt;AppModule -->
<g id="edge9" class="edge">
<title>JWTUtils&#45;&gt;AppModule</title>
<path fill="none" stroke="#000000" d="M917,-198.1061C917,-217.3391 917,-245 917,-245 917,-245 1254.0006,-245 1254.0006,-245"/>
<polygon fill="#000000" stroke="#000000" points="1254.0006,-248.5001 1264.0006,-245 1254.0006,-241.5001 1254.0006,-248.5001"/>
</g>
<!-- SessionService -->
<g id="node11" class="node">
<title>SessionService</title>
<ellipse fill="#fdb462" stroke="#000000" cx="781" cy="-180" rx="69.4974" ry="18"/>
<text text-anchor="middle" x="781" y="-175.8" font-family="Times,serif" font-size="14.00" fill="#000000">SessionService</text>
</g>
<!-- SessionService&#45;&gt;AppModule -->
<g id="edge10" class="edge">
<title>SessionService&#45;&gt;AppModule</title>
<path fill="none" stroke="#000000" d="M781,-198.2843C781,-219.3211 781,-251 781,-251 781,-251 1253.9245,-251 1253.9245,-251"/>
<polygon fill="#000000" stroke="#000000" points="1253.9245,-254.5001 1263.9245,-251 1253.9245,-247.5001 1253.9245,-254.5001"/>
</g>
<!-- UserService -->
<g id="node12" class="node">
<title>UserService</title>
<ellipse fill="#fdb462" stroke="#000000" cx="1590" cy="-180" rx="58.4415" ry="18"/>
<text text-anchor="middle" x="1590" y="-175.8" font-family="Times,serif" font-size="14.00" fill="#000000">UserService</text>
</g>
<!-- UserService&#45;&gt;AppModule -->
<g id="edge11" class="edge">
<title>UserService&#45;&gt;AppModule</title>
<path fill="none" stroke="#000000" d="M1590,-198.2667C1590,-216.5552 1590,-242 1590,-242 1590,-242 1357.9052,-242 1357.9052,-242"/>
<polygon fill="#000000" stroke="#000000" points="1357.9052,-238.5001 1347.9052,-242 1357.9051,-245.5001 1357.9052,-238.5001"/>
</g>
<!-- AuthComponent -->
<g id="node13" class="node">
<title>AuthComponent</title>
<polygon fill="#ffffb3" stroke="#000000" points="2010.8301,-122 1901.1699,-122 1901.1699,-86 2010.8301,-86 2010.8301,-122"/>
<text text-anchor="middle" x="1956" y="-99.8" font-family="Times,serif" font-size="14.00" fill="#000000">AuthComponent</text>
</g>
<!-- AuthComponent&#45;&gt;AuthModule -->
<g id="edge12" class="edge">
<title>AuthComponent&#45;&gt;AuthModule</title>
<path fill="none" stroke="#000000" d="M1956,-122.2434C1956,-129.4297 1956,-136 1956,-136 1956,-136 1743.4624,-136 1743.4624,-136 1743.4624,-136 1743.4624,-151.8495 1743.4624,-151.8495"/>
<polygon fill="#000000" stroke="#000000" points="1739.9625,-151.8494 1743.4624,-161.8495 1746.9625,-151.8495 1739.9625,-151.8494"/>
</g>
<!-- ForgotPasswordComponent -->
<g id="node14" class="node">
<title>ForgotPasswordComponent</title>
<polygon fill="#ffffb3" stroke="#000000" points="1883.3201,-122 1710.6799,-122 1710.6799,-86 1883.3201,-86 1883.3201,-122"/>
<text text-anchor="middle" x="1797" y="-99.8" font-family="Times,serif" font-size="14.00" fill="#000000">ForgotPasswordComponent</text>
</g>
<!-- ForgotPasswordComponent&#45;&gt;AuthModule -->
<g id="edge13" class="edge">
<title>ForgotPasswordComponent&#45;&gt;AuthModule</title>
<path fill="none" stroke="#000000" d="M1727.1512,-122.0109C1727.1512,-122.0109 1727.1512,-151.855 1727.1512,-151.855"/>
<polygon fill="#000000" stroke="#000000" points="1723.6513,-151.8549 1727.1512,-161.855 1730.6513,-151.855 1723.6513,-151.8549"/>
</g>
<!-- LoginComponent -->
<g id="node15" class="node">
<title>LoginComponent</title>
<polygon fill="#ffffb3" stroke="#000000" points="1692.2758,-122 1577.7242,-122 1577.7242,-86 1692.2758,-86 1692.2758,-122"/>
<text text-anchor="middle" x="1635" y="-99.8" font-family="Times,serif" font-size="14.00" fill="#000000">LoginComponent</text>
</g>
<!-- LoginComponent&#45;&gt;AuthModule -->
<g id="edge14" class="edge">
<title>LoginComponent&#45;&gt;AuthModule</title>
<path fill="none" stroke="#000000" d="M1685.6674,-122.0109C1685.6674,-122.0109 1685.6674,-151.855 1685.6674,-151.855"/>
<polygon fill="#000000" stroke="#000000" points="1682.1675,-151.8549 1685.6674,-161.855 1689.1675,-151.855 1682.1675,-151.8549"/>
</g>
<!-- RegisterComponent -->
<g id="node16" class="node">
<title>RegisterComponent</title>
<polygon fill="#ffffb3" stroke="#000000" points="1559.9846,-122 1432.0154,-122 1432.0154,-86 1559.9846,-86 1559.9846,-122"/>
<text text-anchor="middle" x="1496" y="-99.8" font-family="Times,serif" font-size="14.00" fill="#000000">RegisterComponent</text>
</g>
<!-- RegisterComponent&#45;&gt;AuthModule -->
<g id="edge15" class="edge">
<title>RegisterComponent&#45;&gt;AuthModule</title>
<path fill="none" stroke="#000000" d="M1545.886,-122.0439C1545.886,-134.5633 1545.886,-149 1545.886,-149 1545.886,-149 1678.9469,-149 1678.9469,-149 1678.9469,-149 1678.9469,-151.9672 1678.9469,-151.9672"/>
<polygon fill="#000000" stroke="#000000" points="1675.447,-151.9671 1678.9469,-161.9672 1682.447,-151.9672 1675.447,-151.9671"/>
</g>
<!-- DashboardComponent -->
<g id="node17" class="node">
<title>DashboardComponent</title>
<polygon fill="#ffffb3" stroke="#000000" points="2454.9734,-122 2313.0266,-122 2313.0266,-86 2454.9734,-86 2454.9734,-122"/>
<text text-anchor="middle" x="2384" y="-99.8" font-family="Times,serif" font-size="14.00" fill="#000000">DashboardComponent</text>
</g>
<!-- DashboardModule -->
<g id="node20" class="node">
<title>DashboardModule</title>
<polygon fill="#8dd3c7" stroke="#000000" points="2304.191,-198 2301.191,-202 2280.191,-202 2277.191,-198 2183.809,-198 2183.809,-162 2304.191,-162 2304.191,-198"/>
<text text-anchor="middle" x="2244" y="-175.8" font-family="Times,serif" font-size="14.00" fill="#000000">DashboardModule</text>
</g>
<!-- DashboardComponent&#45;&gt;DashboardModule -->
<g id="edge16" class="edge">
<title>DashboardComponent&#45;&gt;DashboardModule</title>
<path fill="none" stroke="#000000" d="M2312.8079,-104C2304.8976,-104 2299.6242,-104 2299.6242,-104 2299.6242,-104 2299.6242,-151.9891 2299.6242,-151.9891"/>
<polygon fill="#000000" stroke="#000000" points="2296.1242,-151.989 2299.6242,-161.9891 2303.1242,-151.9891 2296.1242,-151.989"/>
</g>
<!-- StatusDirective -->
<g id="node18" class="node">
<title>StatusDirective</title>
<polygon fill="#ffffb3" stroke="#000000" points="2295.3063,-122 2192.6937,-122 2192.6937,-86 2295.3063,-86 2295.3063,-122"/>
<text text-anchor="middle" x="2244" y="-99.8" font-family="Times,serif" font-size="14.00" fill="#000000">StatusDirective</text>
</g>
<!-- StatusDirective&#45;&gt;DashboardModule -->
<g id="edge17" class="edge">
<title>StatusDirective&#45;&gt;DashboardModule</title>
<path fill="none" stroke="#000000" d="M2244,-122.0109C2244,-122.0109 2244,-151.855 2244,-151.855"/>
<polygon fill="#000000" stroke="#000000" points="2240.5001,-151.8549 2244,-161.855 2247.5001,-151.855 2240.5001,-151.8549"/>
</g>
<!-- TestingComponent -->
<g id="node19" class="node">
<title>TestingComponent</title>
<polygon fill="#ffffb3" stroke="#000000" points="2174.8258,-122 2051.1742,-122 2051.1742,-86 2174.8258,-86 2174.8258,-122"/>
<text text-anchor="middle" x="2113" y="-99.8" font-family="Times,serif" font-size="14.00" fill="#000000">TestingComponent</text>
</g>
<!-- TestingComponent&#45;&gt;DashboardModule -->
<g id="edge18" class="edge">
<title>TestingComponent&#45;&gt;DashboardModule</title>
<path fill="none" stroke="#000000" d="M2174.9002,-104C2182.9,-104 2188.3759,-104 2188.3759,-104 2188.3759,-104 2188.3759,-151.9891 2188.3759,-151.9891"/>
<polygon fill="#000000" stroke="#000000" points="2184.8759,-151.989 2188.3759,-161.9891 2191.8759,-151.9891 2184.8759,-151.989"/>
</g>
<!-- ActionComponent -->
<g id="node21" class="node">
<title>ActionComponent</title>
<polygon fill="#ffffb3" stroke="#000000" points="494.9356,-198 375.0644,-198 375.0644,-162 494.9356,-162 494.9356,-198"/>
<text text-anchor="middle" x="435" y="-175.8" font-family="Times,serif" font-size="14.00" fill="#000000">ActionComponent</text>
</g>
<!-- ActionComponent&#45;&gt;EmployeeModule -->
<g id="edge19" class="edge">
<title>ActionComponent&#45;&gt;EmployeeModule</title>
<path fill="none" stroke="#000000" d="M395.2195,-198.1061C395.2195,-198.1061 395.2195,-216.991 395.2195,-216.991"/>
<polygon fill="#000000" stroke="#000000" points="391.7196,-216.9909 395.2195,-226.991 398.7196,-216.991 391.7196,-216.9909"/>
</g>
<!-- ActionParentComponent -->
<g id="node22" class="node">
<title>ActionParentComponent</title>
<polygon fill="#ffffb3" stroke="#000000" points="357.6979,-198 202.3021,-198 202.3021,-162 357.6979,-162 357.6979,-198"/>
<text text-anchor="middle" x="280" y="-175.8" font-family="Times,serif" font-size="14.00" fill="#000000">ActionParentComponent</text>
</g>
<!-- ActionParentComponent&#45;&gt;EmployeeModule -->
<g id="edge20" class="edge">
<title>ActionParentComponent&#45;&gt;EmployeeModule</title>
<path fill="none" stroke="#000000" d="M328.2213,-198.1061C328.2213,-198.1061 328.2213,-216.991 328.2213,-216.991"/>
<polygon fill="#000000" stroke="#000000" points="324.7213,-216.9909 328.2213,-226.991 331.7213,-216.991 324.7213,-216.9909"/>
</g>
<!-- EmployeeListComponent -->
<g id="node23" class="node">
<title>EmployeeListComponent</title>
<polygon fill="#ffffb3" stroke="#000000" points="183.8738,-198 24.1262,-198 24.1262,-162 183.8738,-162 183.8738,-198"/>
<text text-anchor="middle" x="104" y="-175.8" font-family="Times,serif" font-size="14.00" fill="#000000">EmployeeListComponent</text>
</g>
<!-- EmployeeListComponent&#45;&gt;EmployeeModule -->
<g id="edge21" class="edge">
<title>EmployeeListComponent&#45;&gt;EmployeeModule</title>
<path fill="none" stroke="#000000" d="M104,-198.1061C104,-217.3391 104,-245 104,-245 104,-245 288.639,-245 288.639,-245"/>
<polygon fill="#000000" stroke="#000000" points="288.6391,-248.5001 298.639,-245 288.639,-241.5001 288.6391,-248.5001"/>
</g>
<!-- FooterComponent -->
<g id="node25" class="node">
<title>FooterComponent</title>
<polygon fill="#ffffb3" stroke="#000000" points="3033.8809,-122 2916.1191,-122 2916.1191,-86 3033.8809,-86 3033.8809,-122"/>
<text text-anchor="middle" x="2975" y="-99.8" font-family="Times,serif" font-size="14.00" fill="#000000">FooterComponent</text>
</g>
<!-- LayoutModule -->
<g id="node29" class="node">
<title>LayoutModule</title>
<polygon fill="#8dd3c7" stroke="#000000" points="2816.7078,-198 2813.7078,-202 2792.7078,-202 2789.7078,-198 2717.2922,-198 2717.2922,-162 2816.7078,-162 2816.7078,-198"/>
<text text-anchor="middle" x="2767" y="-175.8" font-family="Times,serif" font-size="14.00" fill="#000000">LayoutModule</text>
</g>
<!-- FooterComponent&#45;&gt;LayoutModule -->
<g id="edge23" class="edge">
<title>FooterComponent&#45;&gt;LayoutModule</title>
<path fill="none" stroke="#000000" d="M2975,-122.0267C2975,-142.7672 2975,-174 2975,-174 2975,-174 2826.8212,-174 2826.8212,-174"/>
<polygon fill="#000000" stroke="#000000" points="2826.8212,-170.5001 2816.8212,-174 2826.8211,-177.5001 2826.8212,-170.5001"/>
</g>
<!-- HeaderComponent -->
<g id="node26" class="node">
<title>HeaderComponent</title>
<polygon fill="#ffffb3" stroke="#000000" points="2897.7437,-122 2776.2563,-122 2776.2563,-86 2897.7437,-86 2897.7437,-122"/>
<text text-anchor="middle" x="2837" y="-99.8" font-family="Times,serif" font-size="14.00" fill="#000000">HeaderComponent</text>
</g>
<!-- HeaderComponent&#45;&gt;LayoutModule -->
<g id="edge24" class="edge">
<title>HeaderComponent&#45;&gt;LayoutModule</title>
<path fill="none" stroke="#000000" d="M2796.366,-122.0109C2796.366,-122.0109 2796.366,-151.855 2796.366,-151.855"/>
<polygon fill="#000000" stroke="#000000" points="2792.8661,-151.8549 2796.366,-161.855 2799.8661,-151.855 2792.8661,-151.8549"/>
</g>
<!-- LayoutComponent -->
<g id="node27" class="node">
<title>LayoutComponent</title>
<polygon fill="#ffffb3" stroke="#000000" points="2758.4902,-122 2637.5098,-122 2637.5098,-86 2758.4902,-86 2758.4902,-122"/>
<text text-anchor="middle" x="2698" y="-99.8" font-family="Times,serif" font-size="14.00" fill="#000000">LayoutComponent</text>
</g>
<!-- LayoutComponent&#45;&gt;LayoutModule -->
<g id="edge25" class="edge">
<title>LayoutComponent&#45;&gt;LayoutModule</title>
<path fill="none" stroke="#000000" d="M2737.9457,-122.0109C2737.9457,-122.0109 2737.9457,-151.855 2737.9457,-151.855"/>
<polygon fill="#000000" stroke="#000000" points="2734.4457,-151.8549 2737.9457,-161.855 2741.4457,-151.855 2734.4457,-151.8549"/>
</g>
<!-- SidebarComponent -->
<g id="node28" class="node">
<title>SidebarComponent</title>
<polygon fill="#ffffb3" stroke="#000000" points="2619.0954,-122 2494.9046,-122 2494.9046,-86 2619.0954,-86 2619.0954,-122"/>
<text text-anchor="middle" x="2557" y="-99.8" font-family="Times,serif" font-size="14.00" fill="#000000">SidebarComponent</text>
</g>
<!-- SidebarComponent&#45;&gt;LayoutModule -->
<g id="edge26" class="edge">
<title>SidebarComponent&#45;&gt;LayoutModule</title>
<path fill="none" stroke="#000000" d="M2557,-122.0109C2557,-144.4852 2557,-180 2557,-180 2557,-180 2707.2329,-180 2707.2329,-180"/>
<polygon fill="#000000" stroke="#000000" points="2707.233,-183.5001 2717.2329,-180 2707.2329,-176.5001 2707.233,-183.5001"/>
</g>
<!-- LayoutComponent  -->
<g id="node30" class="node">
<title>LayoutComponent </title>
<polygon fill="#80b1d3" stroke="#000000" points="2829.4912,-263 2704.5088,-263 2704.5088,-227 2829.4912,-227 2829.4912,-263"/>
<text text-anchor="middle" x="2767" y="-240.8" font-family="Times,serif" font-size="14.00" fill="#000000">LayoutComponent </text>
</g>
<!-- LayoutModule&#45;&gt;LayoutComponent  -->
<g id="edge27" class="edge">
<title>LayoutModule&#45;&gt;LayoutComponent </title>
<path fill="none" stroke="#000000" stroke-dasharray="1,5" d="M2767,-198.1061C2767,-198.1061 2767,-216.991 2767,-216.991"/>
<polygon fill="#000000" stroke="#000000" points="2763.5001,-216.9909 2767,-226.991 2770.5001,-216.991 2763.5001,-216.9909"/>
</g>
<!-- CompanyProfileComponent -->
<g id="node31" class="node">
<title>CompanyProfileComponent</title>
<polygon fill="#ffffb3" stroke="#000000" points="3605.8738,-122 3432.1262,-122 3432.1262,-86 3605.8738,-86 3605.8738,-122"/>
<text text-anchor="middle" x="3519" y="-99.8" font-family="Times,serif" font-size="14.00" fill="#000000">CompanyProfileComponent</text>
</g>
<!-- ProfileModule -->
<g id="node34" class="node">
<title>ProfileModule</title>
<polygon fill="#8dd3c7" stroke="#000000" points="3374.65,-198 3371.65,-202 3350.65,-202 3347.65,-198 3277.35,-198 3277.35,-162 3374.65,-162 3374.65,-198"/>
<text text-anchor="middle" x="3326" y="-175.8" font-family="Times,serif" font-size="14.00" fill="#000000">ProfileModule</text>
</g>
<!-- CompanyProfileComponent&#45;&gt;ProfileModule -->
<g id="edge28" class="edge">
<title>CompanyProfileComponent&#45;&gt;ProfileModule</title>
<path fill="none" stroke="#000000" d="M3519,-122.0109C3519,-144.4852 3519,-180 3519,-180 3519,-180 3384.702,-180 3384.702,-180"/>
<polygon fill="#000000" stroke="#000000" points="3384.7021,-176.5001 3374.702,-180 3384.702,-183.5001 3384.7021,-176.5001"/>
</g>
<!-- UpdatePasswordComponent -->
<g id="node32" class="node">
<title>UpdatePasswordComponent</title>
<polygon fill="#ffffb3" stroke="#000000" points="3413.9129,-122 3238.0871,-122 3238.0871,-86 3413.9129,-86 3413.9129,-122"/>
<text text-anchor="middle" x="3326" y="-99.8" font-family="Times,serif" font-size="14.00" fill="#000000">UpdatePasswordComponent</text>
</g>
<!-- UpdatePasswordComponent&#45;&gt;ProfileModule -->
<g id="edge29" class="edge">
<title>UpdatePasswordComponent&#45;&gt;ProfileModule</title>
<path fill="none" stroke="#000000" d="M3326,-122.0109C3326,-122.0109 3326,-151.855 3326,-151.855"/>
<polygon fill="#000000" stroke="#000000" points="3322.5001,-151.8549 3326,-161.855 3329.5001,-151.855 3322.5001,-151.8549"/>
</g>
<!-- UserProfileComponent -->
<g id="node33" class="node">
<title>UserProfileComponent</title>
<polygon fill="#ffffb3" stroke="#000000" points="3219.8585,-122 3074.1415,-122 3074.1415,-86 3219.8585,-86 3219.8585,-122"/>
<text text-anchor="middle" x="3147" y="-99.8" font-family="Times,serif" font-size="14.00" fill="#000000">UserProfileComponent</text>
</g>
<!-- UserProfileComponent&#45;&gt;ProfileModule -->
<g id="edge30" class="edge">
<title>UserProfileComponent&#45;&gt;ProfileModule</title>
<path fill="none" stroke="#000000" d="M3147,-122.1985C3147,-146.3563 3147,-186 3147,-186 3147,-186 3267.0875,-186 3267.0875,-186"/>
<polygon fill="#000000" stroke="#000000" points="3267.0875,-189.5001 3277.0875,-186 3267.0874,-182.5001 3267.0875,-189.5001"/>
</g>
</g>
</svg>
