<?xml version="1.0" encoding="UTF-8" standalone="no"?>
<!DOCTYPE svg PUBLIC "-//W3C//DTD SVG 1.1//EN"
 "http://www.w3.org/Graphics/SVG/1.1/DTD/svg11.dtd">
<!-- Generated by graphviz version 2.40.1 (20161225.0304)
 -->
<!-- Title: dependencies Pages: 1 -->
<svg width="3698pt" height="363pt"
 viewBox="0.00 0.00 3698.00 363.00" xmlns="http://www.w3.org/2000/svg" xmlns:xlink="http://www.w3.org/1999/xlink">
<g id="graph0" class="graph" transform="scale(1 1) rotate(0) translate(4 359)">
<title>dependencies</title>
<polygon fill="#ffffff" stroke="transparent" points="-4,4 -4,-359 3694,-359 3694,4 -4,4"/>
<text text-anchor="start" x="1824.0091" y="-42.4" font-family="sans-serif" font-weight="bold" font-size="14.00" fill="#000000">Legend</text>
<polygon fill="#ffffb3" stroke="transparent" points="1611,-10 1611,-30 1631,-30 1631,-10 1611,-10"/>
<text text-anchor="start" x="1634.629" y="-15.4" font-family="sans-serif" font-size="14.00" fill="#000000"> &#160;Declarations</text>
<polygon fill="#8dd3c7" stroke="transparent" points="1724,-10 1724,-30 1744,-30 1744,-10 1724,-10"/>
<text text-anchor="start" x="1747.7251" y="-15.4" font-family="sans-serif" font-size="14.00" fill="#000000"> &#160;Module</text>
<polygon fill="#80b1d3" stroke="transparent" points="1810,-10 1810,-30 1830,-30 1830,-10 1810,-10"/>
<text text-anchor="start" x="1833.7812" y="-15.4" font-family="sans-serif" font-size="14.00" fill="#000000"> &#160;Bootstrap</text>
<polygon fill="#fdb462" stroke="transparent" points="1907,-10 1907,-30 1927,-30 1927,-10 1907,-10"/>
<text text-anchor="start" x="1930.6732" y="-15.4" font-family="sans-serif" font-size="14.00" fill="#000000"> &#160;Providers</text>
<polygon fill="#fb8072" stroke="transparent" points="2003,-10 2003,-30 2023,-30 2023,-10 2003,-10"/>
<text text-anchor="start" x="2026.7258" y="-15.4" font-family="sans-serif" font-size="14.00" fill="#000000"> &#160;Exports</text>
<g id="clust1" class="cluster">
<title>cluster_AppModule</title>
<polygon fill="none" stroke="#000000" stroke-dasharray="1,5" points="519,-146 519,-347 1966,-347 1966,-146 519,-146"/>
</g>
<g id="clust2" class="cluster">
<title>cluster_AppModule_declarations</title>
<polygon fill="none" stroke="#000000" points="1836,-154 1836,-206 1958,-206 1958,-154 1836,-154"/>
</g>
<g id="clust4" class="cluster">
<title>cluster_AppModule_imports</title>
<polygon fill="none" stroke="#000000" points="1724,-154 1724,-206 1828,-206 1828,-154 1724,-154"/>
</g>
<g id="clust6" class="cluster">
<title>cluster_AppModule_bootstrap</title>
<polygon fill="none" stroke="#000000" points="1244,-287 1244,-339 1368,-339 1368,-287 1244,-287"/>
</g>
<g id="clust7" class="cluster">
<title>cluster_AppModule_providers</title>
<polygon fill="none" stroke="#000000" points="527,-154 527,-206 1716,-206 1716,-154 527,-154"/>
</g>
<g id="clust8" class="cluster">
<title>cluster_AuthModule</title>
<polygon fill="none" stroke="#000000" stroke-dasharray="1,5" points="1476,-70 1476,-138 2087,-138 2087,-70 1476,-70"/>
</g>
<g id="clust9" class="cluster">
<title>cluster_AuthModule_declarations</title>
<polygon fill="none" stroke="#000000" points="1484,-78 1484,-130 2079,-130 2079,-78 1484,-78"/>
</g>
<g id="clust18" class="cluster">
<title>cluster_DashboardModule</title>
<polygon fill="none" stroke="#000000" stroke-dasharray="1,5" points="2095,-70 2095,-206 2531,-206 2531,-70 2095,-70"/>
</g>
<g id="clust19" class="cluster">
<title>cluster_DashboardModule_declarations</title>
<polygon fill="none" stroke="#000000" points="2103,-78 2103,-130 2523,-130 2523,-78 2103,-78"/>
</g>
<g id="clust27" class="cluster">
<title>cluster_EmployeeModule</title>
<polygon fill="none" stroke="#000000" stroke-dasharray="1,5" points="8,-146 8,-271 511,-271 511,-146 8,-146"/>
</g>
<g id="clust28" class="cluster">
<title>cluster_EmployeeModule_declarations</title>
<polygon fill="none" stroke="#000000" points="16,-154 16,-206 503,-206 503,-154 16,-154"/>
</g>
<g id="clust36" class="cluster">
<title>cluster_LayoutModule</title>
<polygon fill="none" stroke="#000000" stroke-dasharray="1,5" points="2539,-70 2539,-279 3110,-279 3110,-70 2539,-70"/>
</g>
<g id="clust37" class="cluster">
<title>cluster_LayoutModule_declarations</title>
<polygon fill="none" stroke="#000000" points="2547,-78 2547,-130 3102,-130 3102,-78 2547,-78"/>
</g>
<g id="clust44" class="cluster">
<title>cluster_LayoutModule_bootstrap</title>
<polygon fill="none" stroke="#000000" points="2757,-219 2757,-271 2897,-271 2897,-219 2757,-219"/>
</g>
<g id="clust46" class="cluster">
<title>cluster_ProfileModule</title>
<polygon fill="none" stroke="#000000" stroke-dasharray="1,5" points="3118,-70 3118,-206 3682,-206 3682,-70 3118,-70"/>
</g>
<g id="clust47" class="cluster">
<title>cluster_ProfileModule_declarations</title>
<polygon fill="none" stroke="#000000" points="3126,-78 3126,-130 3674,-130 3674,-78 3126,-78"/>
</g>
<!-- AppComponent -->
<g id="node1" class="node">
<title>AppComponent</title>
<polygon fill="#ffffb3" stroke="#000000" points="1949.9399,-198 1844.0601,-198 1844.0601,-162 1949.9399,-162 1949.9399,-198"/>
<text text-anchor="middle" x="1897" y="-175.8" font-family="Times,serif" font-size="14.00" fill="#000000">AppComponent</text>
</g>
<!-- AppModule -->
<g id="node2" class="node">
<title>AppModule</title>
<polygon fill="#8dd3c7" stroke="#000000" points="1347.6571,-263 1344.6571,-267 1323.6571,-267 1320.6571,-263 1264.3429,-263 1264.3429,-227 1347.6571,-227 1347.6571,-263"/>
<text text-anchor="middle" x="1306" y="-240.8" font-family="Times,serif" font-size="14.00" fill="#000000">AppModule</text>
</g>
<!-- AppComponent&#45;&gt;AppModule -->
<g id="edge1" class="edge">
<title>AppComponent&#45;&gt;AppModule</title>
<path fill="none" stroke="#000000" d="M1897,-198.0109C1897,-220.4852 1897,-256 1897,-256 1897,-256 1358.0295,-256 1358.0295,-256"/>
<polygon fill="#000000" stroke="#000000" points="1358.0295,-252.5001 1348.0295,-256 1358.0294,-259.5001 1358.0295,-252.5001"/>
</g>
<!-- AppComponent  -->
<g id="node4" class="node">
<title>AppComponent </title>
<polygon fill="#80b1d3" stroke="#000000" points="1360.439,-331 1251.561,-331 1251.561,-295 1360.439,-295 1360.439,-331"/>
<text text-anchor="middle" x="1306" y="-308.8" font-family="Times,serif" font-size="14.00" fill="#000000">AppComponent </text>
</g>
<!-- AppModule&#45;&gt;AppComponent  -->
<g id="edge3" class="edge">
<title>AppModule&#45;&gt;AppComponent </title>
<path fill="none" stroke="#000000" stroke-dasharray="1,5" d="M1306,-263.2228C1306,-263.2228 1306,-284.7269 1306,-284.7269"/>
<polygon fill="#000000" stroke="#000000" points="1302.5001,-284.7269 1306,-294.7269 1309.5001,-284.727 1302.5001,-284.7269"/>
</g>
<!-- AuthModule -->
<g id="node3" class="node">
<title>AuthModule</title>
<polygon fill="#8dd3c7" stroke="#000000" points="1819.5482,-198 1816.5482,-202 1795.5482,-202 1792.5482,-198 1732.4518,-198 1732.4518,-162 1819.5482,-162 1819.5482,-198"/>
<text text-anchor="middle" x="1776" y="-175.8" font-family="Times,serif" font-size="14.00" fill="#000000">AuthModule</text>
</g>
<!-- AuthModule&#45;&gt;AppModule -->
<g id="edge2" class="edge">
<title>AuthModule&#45;&gt;AppModule</title>
<path fill="none" stroke="#000000" d="M1776,-198.1289C1776,-218.5724 1776,-249 1776,-249 1776,-249 1357.7094,-249 1357.7094,-249"/>
<polygon fill="#000000" stroke="#000000" points="1357.7094,-245.5001 1347.7094,-249 1357.7093,-252.5001 1357.7094,-245.5001"/>
</g>
<!-- AppService -->
<g id="node5" class="node">
<title>AppService</title>
<ellipse fill="#fdb462" stroke="#000000" cx="1517" cy="-180" rx="56.7406" ry="18"/>
<text text-anchor="middle" x="1517" y="-175.8" font-family="Times,serif" font-size="14.00" fill="#000000">AppService</text>
</g>
<!-- AppService&#45;&gt;AppModule -->
<g id="edge4" class="edge">
<title>AppService&#45;&gt;AppModule</title>
<path fill="none" stroke="#000000" d="M1517,-198.0091C1517,-214.0494 1517,-235 1517,-235 1517,-235 1357.6868,-235 1357.6868,-235"/>
<polygon fill="#000000" stroke="#000000" points="1357.6868,-231.5001 1347.6868,-235 1357.6868,-238.5001 1357.6868,-231.5001"/>
</g>
<!-- AuthService -->
<g id="node6" class="node">
<title>AuthService</title>
<ellipse fill="#fdb462" stroke="#000000" cx="1383" cy="-180" rx="59.1083" ry="18"/>
<text text-anchor="middle" x="1383" y="-175.8" font-family="Times,serif" font-size="14.00" fill="#000000">AuthService</text>
</g>
<!-- AuthService&#45;&gt;AppModule -->
<g id="edge5" class="edge">
<title>AuthService&#45;&gt;AppModule</title>
<path fill="none" stroke="#000000" d="M1335.7622,-191.0264C1335.7622,-191.0264 1335.7622,-216.7791 1335.7622,-216.7791"/>
<polygon fill="#000000" stroke="#000000" points="1332.2623,-216.779 1335.7622,-226.7791 1339.2623,-216.7791 1332.2623,-216.779"/>
</g>
<!-- BaseUrlProvider -->
<g id="node7" class="node">
<title>BaseUrlProvider</title>
<ellipse fill="#fdb462" stroke="#000000" cx="1230" cy="-180" rx="75.8586" ry="18"/>
<text text-anchor="middle" x="1230" y="-175.8" font-family="Times,serif" font-size="14.00" fill="#000000">BaseUrlProvider</text>
</g>
<!-- BaseUrlProvider&#45;&gt;AppModule -->
<g id="edge6" class="edge">
<title>BaseUrlProvider&#45;&gt;AppModule</title>
<path fill="none" stroke="#000000" d="M1285.0505,-192.5327C1285.0505,-192.5327 1285.0505,-216.8507 1285.0505,-216.8507"/>
<polygon fill="#000000" stroke="#000000" points="1281.5506,-216.8506 1285.0505,-226.8507 1288.5506,-216.8507 1281.5506,-216.8506"/>
</g>
<!-- CommonService -->
<g id="node8" class="node">
<title>CommonService</title>
<ellipse fill="#fdb462" stroke="#000000" cx="1060" cy="-180" rx="75.8836" ry="18"/>
<text text-anchor="middle" x="1060" y="-175.8" font-family="Times,serif" font-size="14.00" fill="#000000">CommonService</text>
</g>
<!-- CommonService&#45;&gt;AppModule -->
<g id="edge7" class="edge">
<title>CommonService&#45;&gt;AppModule</title>
<path fill="none" stroke="#000000" d="M1060,-198.0225C1060,-215.3734 1060,-239 1060,-239 1060,-239 1254.2695,-239 1254.2695,-239"/>
<polygon fill="#000000" stroke="#000000" points="1254.2695,-242.5001 1264.2695,-239 1254.2694,-235.5001 1254.2695,-242.5001"/>
</g>
<!-- EmployeeService -->
<g id="node9" class="node">
<title>EmployeeService</title>
<ellipse fill="#fdb462" stroke="#000000" cx="614" cy="-180" rx="79.2922" ry="18"/>
<text text-anchor="middle" x="614" y="-175.8" font-family="Times,serif" font-size="14.00" fill="#000000">EmployeeService</text>
</g>
<!-- EmployeeService&#45;&gt;AppModule -->
<g id="edge8" class="edge">
<title>EmployeeService&#45;&gt;AppModule</title>
<path fill="none" stroke="#000000" d="M640.382,-197.0888C640.382,-219.7736 640.382,-257 640.382,-257 640.382,-257 1254.1105,-257 1254.1105,-257"/>
<polygon fill="#000000" stroke="#000000" points="1254.1105,-260.5001 1264.1105,-257 1254.1104,-253.5001 1254.1105,-260.5001"/>
</g>
<!-- EmployeeModule -->
<g id="node24" class="node">
<title>EmployeeModule</title>
<polygon fill="#8dd3c7" stroke="#000000" points="415.3132,-263 412.3132,-267 391.3132,-267 388.3132,-263 298.6868,-263 298.6868,-227 415.3132,-227 415.3132,-263"/>
<text text-anchor="middle" x="357" y="-240.8" font-family="Times,serif" font-size="14.00" fill="#000000">EmployeeModule</text>
</g>
<!-- EmployeeService&#45;&gt;EmployeeModule -->
<g id="edge22" class="edge">
<title>EmployeeService&#45;&gt;EmployeeModule</title>
<path fill="none" stroke="#000000" d="M587.618,-197.0613C587.618,-212.5549 587.618,-233 587.618,-233 587.618,-233 425.1947,-233 425.1947,-233"/>
<polygon fill="#000000" stroke="#000000" points="425.1947,-229.5001 415.1947,-233 425.1946,-236.5001 425.1947,-229.5001"/>
</g>
<!-- JWTUtils -->
<g id="node10" class="node">
<title>JWTUtils</title>
<ellipse fill="#fdb462" stroke="#000000" cx="917" cy="-180" rx="48.6694" ry="18"/>
<text text-anchor="middle" x="917" y="-175.8" font-family="Times,serif" font-size="14.00" fill="#000000">JWTUtils</text>
</g>
<!-- JWTUtils&#45;&gt;AppModule -->
<g id="edge9" class="edge">
<title>JWTUtils&#45;&gt;AppModule</title>
<path fill="none" stroke="#000000" d="M917,-198.1061C917,-217.3391 917,-245 917,-245 917,-245 1254.0006,-245 1254.0006,-245"/>
<polygon fill="#000000" stroke="#000000" points="1254.0006,-248.5001 1264.0006,-245 1254.0006,-241.5001 1254.0006,-248.5001"/>
</g>
<!-- SessionService -->
<g id="node11" class="node">
<title>SessionService</title>
<ellipse fill="#fdb462" stroke="#000000" cx="781" cy="-180" rx="69.4974" ry="18"/>
<text text-anchor="middle" x="781" y="-175.8" font-family="Times,serif" font-size="14.00" fill="#000000">SessionService</text>
</g>
<!-- SessionService&#45;&gt;AppModule -->
<g id="edge10" class="edge">
<title>SessionService&#45;&gt;AppModule</title>
<path fill="none" stroke="#000000" d="M781,-198.2843C781,-219.3211 781,-251 781,-251 781,-251 1253.9245,-251 1253.9245,-251"/>
<polygon fill="#000000" stroke="#000000" points="1253.9245,-254.5001 1263.9245,-251 1253.9245,-247.5001 1253.9245,-254.5001"/>
</g>
<!-- UserService -->
<g id="node12" class="node">
<title>UserService</title>
<ellipse fill="#fdb462" stroke="#000000" cx="1650" cy="-180" rx="58.4415" ry="18"/>
<text text-anchor="middle" x="1650" y="-175.8" font-family="Times,serif" font-size="14.00" fill="#000000">UserService</text>
</g>
<!-- UserService&#45;&gt;AppModule -->
<g id="edge11" class="edge">
<title>UserService&#45;&gt;AppModule</title>
<path fill="none" stroke="#000000" d="M1650,-198.2667C1650,-216.5552 1650,-242 1650,-242 1650,-242 1357.8372,-242 1357.8372,-242"/>
<polygon fill="#000000" stroke="#000000" points="1357.8373,-238.5001 1347.8372,-242 1357.8372,-245.5001 1357.8373,-238.5001"/>
</g>
<!-- AuthComponent -->
<g id="node13" class="node">
<title>AuthComponent</title>
<polygon fill="#ffffb3" stroke="#000000" points="2070.8301,-122 1961.1699,-122 1961.1699,-86 2070.8301,-86 2070.8301,-122"/>
<text text-anchor="middle" x="2016" y="-99.8" font-family="Times,serif" font-size="14.00" fill="#000000">AuthComponent</text>
</g>
<!-- AuthComponent&#45;&gt;AuthModule -->
<g id="edge12" class="edge">
<title>AuthComponent&#45;&gt;AuthModule</title>
<path fill="none" stroke="#000000" d="M2016,-122.2434C2016,-129.4297 2016,-136 2016,-136 2016,-136 1803.4624,-136 1803.4624,-136 1803.4624,-136 1803.4624,-151.8495 1803.4624,-151.8495"/>
<polygon fill="#000000" stroke="#000000" points="1799.9625,-151.8494 1803.4624,-161.8495 1806.9625,-151.8495 1799.9625,-151.8494"/>
</g>
<!-- ForgotPasswordComponent -->
<g id="node14" class="node">
<title>ForgotPasswordComponent</title>
<polygon fill="#ffffb3" stroke="#000000" points="1943.3201,-122 1770.6799,-122 1770.6799,-86 1943.3201,-86 1943.3201,-122"/>
<text text-anchor="middle" x="1857" y="-99.8" font-family="Times,serif" font-size="14.00" fill="#000000">ForgotPasswordComponent</text>
</g>
<!-- ForgotPasswordComponent&#45;&gt;AuthModule -->
<g id="edge13" class="edge">
<title>ForgotPasswordComponent&#45;&gt;AuthModule</title>
<path fill="none" stroke="#000000" d="M1787.1512,-122.0109C1787.1512,-122.0109 1787.1512,-151.855 1787.1512,-151.855"/>
<polygon fill="#000000" stroke="#000000" points="1783.6513,-151.8549 1787.1512,-161.855 1790.6513,-151.855 1783.6513,-151.8549"/>
</g>
<!-- LoginComponent -->
<g id="node15" class="node">
<title>LoginComponent</title>
<polygon fill="#ffffb3" stroke="#000000" points="1752.2758,-122 1637.7242,-122 1637.7242,-86 1752.2758,-86 1752.2758,-122"/>
<text text-anchor="middle" x="1695" y="-99.8" font-family="Times,serif" font-size="14.00" fill="#000000">LoginComponent</text>
</g>
<!-- LoginComponent&#45;&gt;AuthModule -->
<g id="edge14" class="edge">
<title>LoginComponent&#45;&gt;AuthModule</title>
<path fill="none" stroke="#000000" d="M1745.6674,-122.0109C1745.6674,-122.0109 1745.6674,-151.855 1745.6674,-151.855"/>
<polygon fill="#000000" stroke="#000000" points="1742.1675,-151.8549 1745.6674,-161.855 1749.1675,-151.855 1742.1675,-151.8549"/>
</g>
<!-- RegisterComponent -->
<g id="node16" class="node">
<title>RegisterComponent</title>
<polygon fill="#ffffb3" stroke="#000000" points="1619.9846,-122 1492.0154,-122 1492.0154,-86 1619.9846,-86 1619.9846,-122"/>
<text text-anchor="middle" x="1556" y="-99.8" font-family="Times,serif" font-size="14.00" fill="#000000">RegisterComponent</text>
</g>
<!-- RegisterComponent&#45;&gt;AuthModule -->
<g id="edge15" class="edge">
<title>RegisterComponent&#45;&gt;AuthModule</title>
<path fill="none" stroke="#000000" d="M1605.886,-122.0439C1605.886,-134.5633 1605.886,-149 1605.886,-149 1605.886,-149 1738.9469,-149 1738.9469,-149 1738.9469,-149 1738.9469,-151.9672 1738.9469,-151.9672"/>
<polygon fill="#000000" stroke="#000000" points="1735.447,-151.9671 1738.9469,-161.9672 1742.447,-151.9672 1735.447,-151.9671"/>
</g>
<!-- DashboardComponent -->
<g id="node17" class="node">
<title>DashboardComponent</title>
<polygon fill="#ffffb3" stroke="#000000" points="2514.9734,-122 2373.0266,-122 2373.0266,-86 2514.9734,-86 2514.9734,-122"/>
<text text-anchor="middle" x="2444" y="-99.8" font-family="Times,serif" font-size="14.00" fill="#000000">DashboardComponent</text>
</g>
<!-- DashboardModule -->
<g id="node20" class="node">
<title>DashboardModule</title>
<polygon fill="#8dd3c7" stroke="#000000" points="2364.191,-198 2361.191,-202 2340.191,-202 2337.191,-198 2243.809,-198 2243.809,-162 2364.191,-162 2364.191,-198"/>
<text text-anchor="middle" x="2304" y="-175.8" font-family="Times,serif" font-size="14.00" fill="#000000">DashboardModule</text>
</g>
<!-- DashboardComponent&#45;&gt;DashboardModule -->
<g id="edge16" class="edge">
<title>DashboardComponent&#45;&gt;DashboardModule</title>
<path fill="none" stroke="#000000" d="M2372.8079,-104C2364.8976,-104 2359.6242,-104 2359.6242,-104 2359.6242,-104 2359.6242,-151.9891 2359.6242,-151.9891"/>
<polygon fill="#000000" stroke="#000000" points="2356.1242,-151.989 2359.6242,-161.9891 2363.1242,-151.9891 2356.1242,-151.989"/>
</g>
<!-- StatusDirective -->
<g id="node18" class="node">
<title>StatusDirective</title>
<polygon fill="#ffffb3" stroke="#000000" points="2355.3063,-122 2252.6937,-122 2252.6937,-86 2355.3063,-86 2355.3063,-122"/>
<text text-anchor="middle" x="2304" y="-99.8" font-family="Times,serif" font-size="14.00" fill="#000000">StatusDirective</text>
</g>
<!-- StatusDirective&#45;&gt;DashboardModule -->
<g id="edge17" class="edge">
<title>StatusDirective&#45;&gt;DashboardModule</title>
<path fill="none" stroke="#000000" d="M2304,-122.0109C2304,-122.0109 2304,-151.855 2304,-151.855"/>
<polygon fill="#000000" stroke="#000000" points="2300.5001,-151.8549 2304,-161.855 2307.5001,-151.855 2300.5001,-151.8549"/>
</g>
<!-- TestingComponent -->
<g id="node19" class="node">
<title>TestingComponent</title>
<polygon fill="#ffffb3" stroke="#000000" points="2234.8258,-122 2111.1742,-122 2111.1742,-86 2234.8258,-86 2234.8258,-122"/>
<text text-anchor="middle" x="2173" y="-99.8" font-family="Times,serif" font-size="14.00" fill="#000000">TestingComponent</text>
</g>
<!-- TestingComponent&#45;&gt;DashboardModule -->
<g id="edge18" class="edge">
<title>TestingComponent&#45;&gt;DashboardModule</title>
<path fill="none" stroke="#000000" d="M2234.9002,-104C2242.9,-104 2248.3759,-104 2248.3759,-104 2248.3759,-104 2248.3759,-151.9891 2248.3759,-151.9891"/>
<polygon fill="#000000" stroke="#000000" points="2244.8759,-151.989 2248.3759,-161.9891 2251.8759,-151.9891 2244.8759,-151.989"/>
</g>
<!-- ActionComponent -->
<g id="node21" class="node">
<title>ActionComponent</title>
<polygon fill="#ffffb3" stroke="#000000" points="494.9356,-198 375.0644,-198 375.0644,-162 494.9356,-162 494.9356,-198"/>
<text text-anchor="middle" x="435" y="-175.8" font-family="Times,serif" font-size="14.00" fill="#000000">ActionComponent</text>
</g>
<!-- ActionComponent&#45;&gt;EmployeeModule -->
<g id="edge19" class="edge">
<title>ActionComponent&#45;&gt;EmployeeModule</title>
<path fill="none" stroke="#000000" d="M395.2195,-198.1061C395.2195,-198.1061 395.2195,-216.991 395.2195,-216.991"/>
<polygon fill="#000000" stroke="#000000" points="391.7196,-216.9909 395.2195,-226.991 398.7196,-216.991 391.7196,-216.9909"/>
</g>
<!-- ActionParentComponent -->
<g id="node22" class="node">
<title>ActionParentComponent</title>
<polygon fill="#ffffb3" stroke="#000000" points="357.6979,-198 202.3021,-198 202.3021,-162 357.6979,-162 357.6979,-198"/>
<text text-anchor="middle" x="280" y="-175.8" font-family="Times,serif" font-size="14.00" fill="#000000">ActionParentComponent</text>
</g>
<!-- ActionParentComponent&#45;&gt;EmployeeModule -->
<g id="edge20" class="edge">
<title>ActionParentComponent&#45;&gt;EmployeeModule</title>
<path fill="none" stroke="#000000" d="M328.2213,-198.1061C328.2213,-198.1061 328.2213,-216.991 328.2213,-216.991"/>
<polygon fill="#000000" stroke="#000000" points="324.7213,-216.9909 328.2213,-226.991 331.7213,-216.991 324.7213,-216.9909"/>
</g>
<!-- EmployeeListComponent -->
<g id="node23" class="node">
<title>EmployeeListComponent</title>
<polygon fill="#ffffb3" stroke="#000000" points="183.8738,-198 24.1262,-198 24.1262,-162 183.8738,-162 183.8738,-198"/>
<text text-anchor="middle" x="104" y="-175.8" font-family="Times,serif" font-size="14.00" fill="#000000">EmployeeListComponent</text>
</g>
<!-- EmployeeListComponent&#45;&gt;EmployeeModule -->
<g id="edge21" class="edge">
<title>EmployeeListComponent&#45;&gt;EmployeeModule</title>
<path fill="none" stroke="#000000" d="M104,-198.1061C104,-217.3391 104,-245 104,-245 104,-245 288.639,-245 288.639,-245"/>
<polygon fill="#000000" stroke="#000000" points="288.6391,-248.5001 298.639,-245 288.639,-241.5001 288.6391,-248.5001"/>
</g>
<!-- FooterComponent -->
<g id="node25" class="node">
<title>FooterComponent</title>
<polygon fill="#ffffb3" stroke="#000000" points="3093.8809,-122 2976.1191,-122 2976.1191,-86 3093.8809,-86 3093.8809,-122"/>
<text text-anchor="middle" x="3035" y="-99.8" font-family="Times,serif" font-size="14.00" fill="#000000">FooterComponent</text>
</g>
<!-- LayoutModule -->
<g id="node29" class="node">
<title>LayoutModule</title>
<polygon fill="#8dd3c7" stroke="#000000" points="2876.7078,-198 2873.7078,-202 2852.7078,-202 2849.7078,-198 2777.2922,-198 2777.2922,-162 2876.7078,-162 2876.7078,-198"/>
<text text-anchor="middle" x="2827" y="-175.8" font-family="Times,serif" font-size="14.00" fill="#000000">LayoutModule</text>
</g>
<!-- FooterComponent&#45;&gt;LayoutModule -->
<g id="edge23" class="edge">
<title>FooterComponent&#45;&gt;LayoutModule</title>
<path fill="none" stroke="#000000" d="M3035,-122.0267C3035,-142.7672 3035,-174 3035,-174 3035,-174 2886.8212,-174 2886.8212,-174"/>
<polygon fill="#000000" stroke="#000000" points="2886.8212,-170.5001 2876.8212,-174 2886.8211,-177.5001 2886.8212,-170.5001"/>
</g>
<!-- HeaderComponent -->
<g id="node26" class="node">
<title>HeaderComponent</title>
<polygon fill="#ffffb3" stroke="#000000" points="2957.7437,-122 2836.2563,-122 2836.2563,-86 2957.7437,-86 2957.7437,-122"/>
<text text-anchor="middle" x="2897" y="-99.8" font-family="Times,serif" font-size="14.00" fill="#000000">HeaderComponent</text>
</g>
<!-- HeaderComponent&#45;&gt;LayoutModule -->
<g id="edge24" class="edge">
<title>HeaderComponent&#45;&gt;LayoutModule</title>
<path fill="none" stroke="#000000" d="M2856.366,-122.0109C2856.366,-122.0109 2856.366,-151.855 2856.366,-151.855"/>
<polygon fill="#000000" stroke="#000000" points="2852.8661,-151.8549 2856.366,-161.855 2859.8661,-151.855 2852.8661,-151.8549"/>
</g>
<!-- LayoutComponent -->
<g id="node27" class="node">
<title>LayoutComponent</title>
<polygon fill="#ffffb3" stroke="#000000" points="2818.4902,-122 2697.5098,-122 2697.5098,-86 2818.4902,-86 2818.4902,-122"/>
<text text-anchor="middle" x="2758" y="-99.8" font-family="Times,serif" font-size="14.00" fill="#000000">LayoutComponent</text>
</g>
<!-- LayoutComponent&#45;&gt;LayoutModule -->
<g id="edge25" class="edge">
<title>LayoutComponent&#45;&gt;LayoutModule</title>
<path fill="none" stroke="#000000" d="M2797.9457,-122.0109C2797.9457,-122.0109 2797.9457,-151.855 2797.9457,-151.855"/>
<polygon fill="#000000" stroke="#000000" points="2794.4457,-151.8549 2797.9457,-161.855 2801.4457,-151.855 2794.4457,-151.8549"/>
</g>
<!-- SidebarComponent -->
<g id="node28" class="node">
<title>SidebarComponent</title>
<polygon fill="#ffffb3" stroke="#000000" points="2679.0954,-122 2554.9046,-122 2554.9046,-86 2679.0954,-86 2679.0954,-122"/>
<text text-anchor="middle" x="2617" y="-99.8" font-family="Times,serif" font-size="14.00" fill="#000000">SidebarComponent</text>
</g>
<!-- SidebarComponent&#45;&gt;LayoutModule -->
<g id="edge26" class="edge">
<title>SidebarComponent&#45;&gt;LayoutModule</title>
<path fill="none" stroke="#000000" d="M2617,-122.0109C2617,-144.4852 2617,-180 2617,-180 2617,-180 2767.2329,-180 2767.2329,-180"/>
<polygon fill="#000000" stroke="#000000" points="2767.233,-183.5001 2777.2329,-180 2767.2329,-176.5001 2767.233,-183.5001"/>
</g>
<!-- LayoutComponent  -->
<g id="node30" class="node">
<title>LayoutComponent </title>
<polygon fill="#80b1d3" stroke="#000000" points="2889.4912,-263 2764.5088,-263 2764.5088,-227 2889.4912,-227 2889.4912,-263"/>
<text text-anchor="middle" x="2827" y="-240.8" font-family="Times,serif" font-size="14.00" fill="#000000">LayoutComponent </text>
</g>
<!-- LayoutModule&#45;&gt;LayoutComponent  -->
<g id="edge27" class="edge">
<title>LayoutModule&#45;&gt;LayoutComponent </title>
<path fill="none" stroke="#000000" stroke-dasharray="1,5" d="M2827,-198.1061C2827,-198.1061 2827,-216.991 2827,-216.991"/>
<polygon fill="#000000" stroke="#000000" points="2823.5001,-216.9909 2827,-226.991 2830.5001,-216.991 2823.5001,-216.9909"/>
</g>
<!-- CompanyProfileComponent -->
<g id="node31" class="node">
<title>CompanyProfileComponent</title>
<polygon fill="#ffffb3" stroke="#000000" points="3665.8738,-122 3492.1262,-122 3492.1262,-86 3665.8738,-86 3665.8738,-122"/>
<text text-anchor="middle" x="3579" y="-99.8" font-family="Times,serif" font-size="14.00" fill="#000000">CompanyProfileComponent</text>
</g>
<!-- ProfileModule -->
<g id="node34" class="node">
<title>ProfileModule</title>
<polygon fill="#8dd3c7" stroke="#000000" points="3434.65,-198 3431.65,-202 3410.65,-202 3407.65,-198 3337.35,-198 3337.35,-162 3434.65,-162 3434.65,-198"/>
<text text-anchor="middle" x="3386" y="-175.8" font-family="Times,serif" font-size="14.00" fill="#000000">ProfileModule</text>
</g>
<!-- CompanyProfileComponent&#45;&gt;ProfileModule -->
<g id="edge28" class="edge">
<title>CompanyProfileComponent&#45;&gt;ProfileModule</title>
<path fill="none" stroke="#000000" d="M3579,-122.0109C3579,-144.4852 3579,-180 3579,-180 3579,-180 3444.702,-180 3444.702,-180"/>
<polygon fill="#000000" stroke="#000000" points="3444.7021,-176.5001 3434.702,-180 3444.702,-183.5001 3444.7021,-176.5001"/>
</g>
<!-- UpdatePasswordComponent -->
<g id="node32" class="node">
<title>UpdatePasswordComponent</title>
<polygon fill="#ffffb3" stroke="#000000" points="3473.9129,-122 3298.0871,-122 3298.0871,-86 3473.9129,-86 3473.9129,-122"/>
<text text-anchor="middle" x="3386" y="-99.8" font-family="Times,serif" font-size="14.00" fill="#000000">UpdatePasswordComponent</text>
</g>
<!-- UpdatePasswordComponent&#45;&gt;ProfileModule -->
<g id="edge29" class="edge">
<title>UpdatePasswordComponent&#45;&gt;ProfileModule</title>
<path fill="none" stroke="#000000" d="M3386,-122.0109C3386,-122.0109 3386,-151.855 3386,-151.855"/>
<polygon fill="#000000" stroke="#000000" points="3382.5001,-151.8549 3386,-161.855 3389.5001,-151.855 3382.5001,-151.8549"/>
</g>
<!-- UserProfileComponent -->
<g id="node33" class="node">
<title>UserProfileComponent</title>
<polygon fill="#ffffb3" stroke="#000000" points="3279.8585,-122 3134.1415,-122 3134.1415,-86 3279.8585,-86 3279.8585,-122"/>
<text text-anchor="middle" x="3207" y="-99.8" font-family="Times,serif" font-size="14.00" fill="#000000">UserProfileComponent</text>
</g>
<!-- UserProfileComponent&#45;&gt;ProfileModule -->
<g id="edge30" class="edge">
<title>UserProfileComponent&#45;&gt;ProfileModule</title>
<path fill="none" stroke="#000000" d="M3207,-122.1985C3207,-146.3563 3207,-186 3207,-186 3207,-186 3327.0875,-186 3327.0875,-186"/>
<polygon fill="#000000" stroke="#000000" points="3327.0875,-189.5001 3337.0875,-186 3327.0874,-182.5001 3327.0875,-189.5001"/>
</g>
</g>
</svg>
